<?xml version="1.0" encoding="UTF-8"?><svg id="Objects" xmlns="http://www.w3.org/2000/svg" viewBox="0 0 2212.05 1343.83"><defs><style>.cls-1{fill:none;}.cls-2{fill:#003082;}.cls-3{fill:#634e42;}</style></defs><g><g><path class="cls-3" d="M263.09,710.37v-.26c-.35,.4-.69,.72-1.03,.97-.34,.25-.71,.44-1.1,.57-.4,.13-.83,.2-1.3,.2-.62,0-1.2-.13-1.72-.39-.53-.26-.99-.64-1.37-1.13-.39-.49-.68-1.06-.88-1.72-.2-.66-.3-1.37-.3-2.14,0-1.62,.4-2.88,1.19-3.79,.79-.9,1.83-1.36,3.12-1.36,.75,0,1.38,.13,1.89,.38,.51,.26,1.01,.65,1.5,1.18v-3.83c0-.53,.11-.93,.32-1.21,.21-.27,.51-.41,.91-.41s.69,.12,.91,.38c.21,.25,.32,.62,.32,1.11v11.44c0,.49-.11,.86-.34,1.11-.23,.25-.52,.37-.88,.37s-.65-.13-.88-.38c-.23-.26-.35-.62-.35-1.1Zm-5.1-3.81c0,.7,.11,1.3,.33,1.8,.22,.49,.52,.87,.9,1.12,.38,.25,.79,.38,1.24,.38s.87-.12,1.25-.36c.38-.24,.68-.6,.9-1.09,.23-.49,.34-1.11,.34-1.84,0-.69-.11-1.29-.34-1.78-.22-.5-.53-.88-.91-1.14-.38-.26-.8-.39-1.26-.39s-.9,.13-1.27,.4c-.37,.27-.66,.65-.87,1.16-.21,.5-.31,1.09-.31,1.75Z"/><path class="cls-3" d="M274.52,707.22h-5.07c0,.59,.12,1.11,.36,1.56,.23,.45,.54,.79,.92,1.02,.38,.23,.81,.34,1.27,.34,.31,0,.59-.04,.85-.11,.26-.07,.5-.19,.75-.34,.24-.15,.46-.32,.66-.5,.2-.18,.46-.42,.79-.72,.13-.11,.32-.17,.57-.17,.27,0,.48,.07,.64,.22,.16,.15,.25,.35,.25,.62,0,.23-.09,.51-.28,.82-.18,.31-.46,.62-.83,.9-.37,.29-.84,.53-1.4,.72-.56,.19-1.2,.29-1.93,.29-1.66,0-2.96-.47-3.88-1.42-.92-.95-1.39-2.24-1.39-3.87,0-.77,.11-1.48,.34-2.13,.23-.66,.56-1.22,1-1.69,.44-.47,.98-.83,1.62-1.08,.64-.25,1.35-.38,2.13-.38,1.01,0,1.88,.21,2.61,.64,.73,.43,1.27,.98,1.63,1.66,.36,.68,.54,1.37,.54,2.07,0,.65-.19,1.08-.56,1.27-.37,.19-.9,.29-1.58,.29Zm-5.07-1.47h4.7c-.06-.89-.3-1.55-.72-1.99-.42-.44-.96-.66-1.64-.66s-1.18,.22-1.59,.67c-.42,.45-.67,1.11-.76,1.98Z"/><path class="cls-3" d="M286.34,708.46c0,.71-.17,1.33-.52,1.84-.35,.51-.86,.9-1.54,1.16-.68,.26-1.51,.39-2.48,.39s-1.73-.14-2.39-.43c-.66-.28-1.16-.64-1.47-1.07-.32-.43-.48-.86-.48-1.29,0-.29,.1-.53,.3-.73,.2-.2,.46-.3,.77-.3,.27,0,.48,.07,.63,.2s.29,.32,.42,.56c.27,.46,.58,.81,.96,1.04,.37,.23,.87,.34,1.52,.34,.52,0,.94-.12,1.28-.35,.33-.23,.5-.5,.5-.79,0-.46-.17-.79-.52-1-.35-.21-.91-.41-1.71-.6-.89-.22-1.62-.46-2.18-.7-.56-.24-1.01-.56-1.34-.96-.34-.4-.5-.89-.5-1.47,0-.52,.15-1.01,.47-1.47,.31-.46,.77-.83,1.37-1.11,.6-.28,1.33-.41,2.19-.41,.67,0,1.27,.07,1.81,.21,.54,.14,.98,.33,1.34,.56,.36,.23,.63,.49,.82,.78,.19,.29,.28,.56,.28,.84,0,.3-.1,.54-.3,.73-.2,.19-.48,.29-.85,.29-.27,0-.49-.08-.68-.23-.19-.15-.4-.38-.64-.68-.2-.25-.43-.46-.69-.61-.27-.15-.63-.23-1.08-.23s-.86,.1-1.17,.3c-.31,.2-.47,.45-.47,.74,0,.27,.11,.5,.34,.67,.23,.18,.54,.32,.92,.43,.39,.11,.92,.25,1.6,.42,.8,.2,1.46,.43,1.97,.7,.51,.27,.9,.59,1.16,.96,.26,.37,.39,.79,.39,1.27Z"/><path class="cls-3" d="M288.99,700.1c-.36,0-.67-.11-.93-.33-.26-.22-.38-.54-.38-.94,0-.37,.13-.67,.39-.91s.57-.36,.92-.36,.63,.11,.89,.32c.26,.21,.39,.53,.39,.94s-.13,.71-.38,.94c-.25,.22-.55,.34-.9,.34Zm1.28,2.68v7.49c0,.52-.12,.91-.37,1.18-.25,.27-.56,.4-.94,.4s-.69-.13-.93-.41c-.24-.27-.36-.66-.36-1.17v-7.42c0-.51,.12-.9,.36-1.16,.24-.26,.55-.39,.93-.39s.69,.13,.94,.39c.25,.26,.37,.62,.37,1.08Z"/><path class="cls-3" d="M301.63,703.21v7.53c0,.86-.09,1.6-.28,2.22-.18,.62-.48,1.13-.88,1.54-.41,.4-.94,.71-1.59,.9-.66,.2-1.47,.3-2.45,.3-.89,0-1.69-.12-2.39-.38-.7-.25-1.24-.57-1.62-.97-.38-.4-.57-.8-.57-1.22,0-.32,.11-.58,.32-.77,.21-.2,.48-.3,.78-.3,.38,0,.71,.17,1,.5,.14,.17,.28,.34,.43,.52,.15,.18,.31,.32,.49,.45,.18,.12,.4,.21,.65,.28,.25,.06,.55,.09,.87,.09,.67,0,1.19-.09,1.56-.28,.37-.19,.63-.45,.78-.78,.15-.33,.24-.69,.26-1.08,.03-.38,.04-1,.06-1.85-.4,.56-.86,.98-1.38,1.27-.52,.29-1.14,.44-1.87,.44-.87,0-1.63-.22-2.28-.67-.65-.44-1.15-1.06-1.5-1.86-.35-.8-.52-1.72-.52-2.76,0-.78,.11-1.48,.32-2.11,.21-.63,.52-1.16,.91-1.59,.39-.43,.85-.75,1.36-.97,.51-.22,1.08-.33,1.69-.33,.73,0,1.37,.14,1.91,.42,.54,.28,1.04,.72,1.5,1.33v-.35c0-.45,.11-.8,.33-1.05,.22-.25,.51-.37,.86-.37,.5,0,.83,.16,1,.49,.16,.33,.25,.8,.25,1.41Zm-7.51,3.29c0,1.05,.23,1.85,.69,2.38,.46,.54,1.05,.81,1.78,.81,.43,0,.84-.12,1.22-.35,.38-.23,.7-.58,.94-1.04,.24-.46,.36-1.03,.36-1.7,0-1.06-.23-1.88-.7-2.47-.47-.59-1.08-.88-1.84-.88s-1.33,.28-1.78,.85c-.45,.56-.67,1.36-.67,2.4Z"/><path class="cls-3" d="M305.75,702.74v.31c.45-.6,.95-1.04,1.5-1.32,.54-.28,1.16-.42,1.87-.42s1.29,.15,1.83,.45c.54,.3,.94,.72,1.21,1.26,.17,.32,.28,.66,.33,1.03,.05,.37,.08,.84,.08,1.41v4.82c0,.52-.12,.91-.36,1.18-.24,.27-.55,.4-.93,.4s-.7-.13-.94-.41c-.24-.27-.36-.66-.36-1.17v-4.32c0-.85-.12-1.51-.36-1.96-.24-.45-.71-.68-1.42-.68-.46,0-.88,.14-1.26,.41-.38,.28-.66,.65-.84,1.13-.13,.39-.19,1.11-.19,2.17v3.25c0,.53-.12,.92-.37,1.18-.24,.26-.56,.39-.94,.39s-.68-.13-.92-.41c-.24-.27-.36-.66-.36-1.17v-7.49c0-.49,.11-.86,.32-1.11,.22-.24,.51-.37,.88-.37,.23,0,.43,.05,.62,.16,.18,.11,.33,.27,.44,.48,.11,.21,.17,.48,.17,.79Z"/><path class="cls-3" d="M321.52,707.22h-5.07c0,.59,.12,1.11,.36,1.56,.23,.45,.54,.79,.92,1.02,.38,.23,.81,.34,1.27,.34,.31,0,.59-.04,.85-.11,.26-.07,.5-.19,.75-.34,.24-.15,.46-.32,.66-.5,.2-.18,.46-.42,.79-.72,.13-.11,.32-.17,.57-.17,.27,0,.48,.07,.65,.22,.16,.15,.25,.35,.25,.62,0,.23-.09,.51-.28,.82-.18,.31-.46,.62-.83,.9-.37,.29-.83,.53-1.4,.72-.56,.19-1.21,.29-1.93,.29-1.67,0-2.96-.47-3.89-1.42-.92-.95-1.39-2.24-1.39-3.87,0-.77,.11-1.48,.34-2.13,.23-.66,.56-1.22,1-1.69,.44-.47,.98-.83,1.61-1.08s1.35-.38,2.13-.38c1.01,0,1.88,.21,2.61,.64,.73,.43,1.27,.98,1.63,1.66,.36,.68,.54,1.37,.54,2.07,0,.65-.19,1.08-.56,1.27-.37,.19-.9,.29-1.58,.29Zm-5.07-1.47h4.7c-.06-.89-.3-1.55-.72-1.99-.42-.44-.96-.66-1.64-.66s-1.18,.22-1.59,.67c-.42,.45-.67,1.11-.75,1.98Z"/><path class="cls-3" d="M332.09,710.37v-.26c-.35,.4-.69,.72-1.03,.97-.34,.25-.71,.44-1.1,.57-.4,.13-.83,.2-1.3,.2-.62,0-1.2-.13-1.72-.39-.53-.26-.99-.64-1.37-1.13-.39-.49-.68-1.06-.88-1.72-.2-.66-.3-1.37-.3-2.14,0-1.62,.4-2.88,1.19-3.79,.79-.9,1.83-1.36,3.12-1.36,.75,0,1.38,.13,1.89,.38,.51,.26,1.01,.65,1.5,1.18v-3.83c0-.53,.11-.93,.32-1.21,.21-.27,.51-.41,.91-.41s.69,.12,.91,.38c.21,.25,.32,.62,.32,1.11v11.44c0,.49-.11,.86-.34,1.11-.23,.25-.52,.37-.88,.37s-.65-.13-.88-.38c-.23-.26-.35-.62-.35-1.1Zm-5.1-3.81c0,.7,.11,1.3,.33,1.8,.22,.49,.52,.87,.9,1.12,.38,.25,.79,.38,1.24,.38s.87-.12,1.25-.36c.38-.24,.68-.6,.9-1.09,.23-.49,.34-1.11,.34-1.84,0-.69-.11-1.29-.34-1.78-.22-.5-.53-.88-.91-1.14-.38-.26-.8-.39-1.26-.39s-.9,.13-1.27,.4c-.37,.27-.66,.65-.87,1.16-.21,.5-.31,1.09-.31,1.75Z"/><path class="cls-3" d="M342.69,698.93v3.96c.49-.51,.98-.89,1.49-1.16,.51-.27,1.13-.4,1.88-.4,.86,0,1.62,.21,2.27,.61,.65,.41,1.15,1,1.51,1.78,.36,.78,.54,1.7,.54,2.76,0,.79-.1,1.5-.3,2.16-.2,.66-.49,1.22-.87,1.7-.38,.48-.84,.85-1.38,1.12-.54,.26-1.14,.39-1.79,.39-.4,0-.77-.05-1.13-.14-.35-.09-.65-.22-.9-.38-.25-.15-.46-.31-.63-.48-.17-.16-.4-.41-.69-.74v.26c0,.49-.12,.86-.35,1.11-.23,.25-.53,.37-.89,.37s-.66-.12-.88-.37c-.22-.25-.33-.62-.33-1.11v-11.32c0-.53,.11-.92,.32-1.19,.21-.27,.51-.4,.89-.4,.4,0,.71,.13,.92,.38,.21,.26,.32,.62,.32,1.1Zm.12,7.7c0,1.03,.24,1.82,.71,2.38,.47,.55,1.09,.83,1.86,.83,.65,0,1.21-.28,1.69-.85,.47-.57,.71-1.38,.71-2.44,0-.68-.1-1.27-.29-1.77-.2-.49-.47-.88-.84-1.14-.36-.27-.78-.4-1.26-.4s-.93,.13-1.32,.4c-.39,.27-.69,.66-.91,1.17-.22,.51-.33,1.12-.33,1.82Z"/><path class="cls-3" d="M353.74,712.17l.24-.58-3.19-8.04c-.2-.46-.29-.8-.29-1.01,0-.22,.06-.43,.17-.62,.11-.19,.27-.34,.47-.46,.2-.12,.41-.17,.62-.17,.37,0,.65,.12,.85,.36,.19,.24,.36,.58,.5,1.02l2.19,6.38,2.08-5.94c.16-.48,.31-.86,.45-1.13,.13-.27,.27-.46,.42-.55,.15-.1,.36-.14,.63-.14,.2,0,.38,.05,.57,.16,.18,.1,.32,.24,.42,.42,.1,.18,.15,.36,.15,.56-.03,.12-.07,.29-.12,.51-.06,.22-.13,.45-.21,.67l-3.38,8.85c-.29,.78-.58,1.39-.86,1.83-.28,.44-.65,.79-1.11,1.02-.46,.24-1.08,.36-1.86,.36s-1.33-.08-1.71-.25c-.38-.17-.57-.47-.57-.9,0-.3,.09-.53,.27-.69,.18-.16,.45-.24,.8-.24,.14,0,.28,.02,.41,.06,.16,.04,.31,.06,.43,.06,.3,0,.53-.04,.7-.13,.17-.09,.32-.24,.46-.46,.14-.22,.29-.54,.47-.96Z"/></g><g><path class="cls-3" d="M391.3,701.53h.62v-.78c0-.81,.1-1.46,.31-1.94,.2-.48,.55-.83,1.05-1.04,.49-.22,1.16-.33,2.02-.33,1.52,0,2.27,.37,2.27,1.11,0,.24-.08,.45-.24,.62-.15,.17-.34,.26-.56,.26-.1,0-.28-.02-.53-.06-.24-.03-.45-.06-.62-.06-.47,0-.77,.14-.9,.42-.13,.28-.2,.67-.2,1.18v.62h.63c.99,0,1.48,.3,1.48,.9,0,.42-.13,.69-.39,.8-.26,.11-.62,.17-1.09,.17h-.63v6.87c0,.51-.12,.9-.37,1.17-.24,.27-.55,.41-.94,.41-.37,0-.67-.13-.92-.41-.24-.27-.36-.66-.36-1.17v-6.87h-.71c-.39,0-.68-.08-.89-.26-.21-.17-.31-.4-.31-.68,0-.62,.43-.93,1.3-.93"/><path class="cls-3" d="M399.79,708.11v2.17c0,.52-.13,.92-.37,1.18-.25,.27-.56,.39-.94,.39s-.69-.13-.93-.4c-.24-.26-.36-.66-.36-1.17v-7.22c0-1.17,.42-1.75,1.26-1.75,.43,0,.74,.13,.93,.41,.19,.27,.29,.67,.32,1.21,.31-.53,.62-.93,.95-1.21,.33-.27,.76-.41,1.31-.41s1.07,.13,1.59,.41c.52,.27,.77,.64,.77,1.08,0,.31-.11,.58-.33,.78-.22,.21-.45,.31-.71,.31-.1,0-.33-.06-.69-.18-.37-.11-.69-.17-.96-.17-.38,0-.69,.1-.93,.3-.24,.21-.43,.5-.56,.89-.13,.39-.22,.87-.27,1.4-.05,.54-.07,1.2-.07,1.98"/><path class="cls-3" d="M411.71,707.21h-5.07c0,.59,.12,1.11,.36,1.56,.23,.45,.54,.79,.92,1.02,.38,.23,.8,.34,1.27,.34,.31,0,.59-.03,.85-.11,.25-.07,.5-.19,.74-.34,.24-.15,.46-.32,.66-.5,.2-.17,.47-.42,.79-.72,.13-.11,.32-.17,.57-.17,.27,0,.48,.07,.65,.22,.17,.15,.24,.35,.24,.62,0,.23-.09,.51-.27,.82-.19,.32-.46,.62-.84,.91-.37,.29-.84,.53-1.4,.71-.56,.19-1.21,.29-1.93,.29-1.67,0-2.96-.47-3.89-1.42-.92-.95-1.39-2.24-1.39-3.87,0-.77,.12-1.48,.35-2.13,.22-.66,.56-1.22,1-1.69,.44-.47,.97-.83,1.61-1.08,.64-.25,1.35-.38,2.13-.38,1.01,0,1.88,.21,2.61,.65,.72,.42,1.27,.98,1.63,1.65,.36,.68,.54,1.37,.54,2.07,0,.65-.19,1.07-.56,1.27-.37,.19-.9,.29-1.58,.29m-5.07-1.47h4.7c-.06-.88-.3-1.55-.71-1.99-.42-.44-.96-.66-1.64-.66-.65,0-1.18,.22-1.59,.67-.41,.45-.67,1.1-.76,1.98"/><path class="cls-3" d="M422.5,707.21h-5.07c0,.59,.12,1.11,.35,1.56,.23,.45,.54,.79,.92,1.02,.38,.23,.8,.34,1.27,.34,.31,0,.59-.03,.84-.11,.26-.07,.51-.19,.75-.34,.24-.15,.46-.32,.66-.5,.2-.17,.46-.42,.79-.72,.13-.11,.33-.17,.57-.17,.27,0,.48,.07,.65,.22,.16,.15,.24,.35,.24,.62,0,.23-.09,.51-.27,.82-.18,.32-.46,.62-.83,.91-.37,.29-.84,.53-1.4,.71-.56,.19-1.21,.29-1.93,.29-1.67,0-2.96-.47-3.89-1.42-.92-.95-1.39-2.24-1.39-3.87,0-.77,.12-1.48,.35-2.13,.23-.66,.56-1.22,1-1.69,.44-.47,.97-.83,1.61-1.08,.64-.25,1.35-.38,2.13-.38,1.01,0,1.88,.21,2.61,.65,.72,.42,1.27,.98,1.62,1.65,.36,.68,.54,1.37,.54,2.07,0,.65-.19,1.07-.56,1.27-.37,.19-.9,.29-1.58,.29m-5.07-1.47h4.7c-.06-.88-.3-1.55-.71-1.99-.42-.44-.96-.66-1.64-.66s-1.18,.22-1.59,.67c-.41,.45-.67,1.1-.75,1.98"/><path class="cls-3" d="M428.18,702.76v.31c.49-.6,.99-1.04,1.53-1.32,.52-.29,1.12-.43,1.78-.43,.79,0,1.54,.21,2.21,.62,.67,.41,1.2,1.02,1.59,1.81,.39,.8,.59,1.73,.59,2.81,0,.79-.11,1.53-.34,2.2-.22,.67-.54,1.23-.93,1.68-.39,.45-.86,.8-1.39,1.04-.54,.24-1.11,.36-1.73,.36-.74,0-1.36-.15-1.87-.45-.5-.29-.98-.73-1.44-1.3v3.89c0,1.13-.42,1.71-1.24,1.71-.49,0-.81-.15-.97-.44-.15-.3-.23-.72-.23-1.29v-11.19c0-.49,.11-.86,.32-1.11,.21-.24,.51-.36,.88-.36s.67,.12,.9,.37c.23,.25,.35,.61,.35,1.09m5.08,3.77c0-.69-.11-1.27-.31-1.76-.21-.49-.5-.87-.87-1.13-.37-.26-.78-.4-1.23-.4-.71,0-1.32,.28-1.81,.84-.49,.57-.74,1.39-.74,2.49,0,1.03,.24,1.83,.74,2.41,.49,.57,1.09,.86,1.81,.86,.43,0,.83-.13,1.2-.37,.37-.25,.66-.63,.88-1.13,.22-.5,.33-1.11,.33-1.81"/><path class="cls-3" d="M438.48,700.1c-.36,0-.67-.12-.92-.34-.26-.22-.39-.53-.39-.94,0-.37,.13-.67,.4-.91,.26-.23,.57-.36,.91-.36s.63,.11,.89,.32c.26,.22,.39,.54,.39,.95s-.13,.71-.38,.94c-.25,.22-.55,.34-.91,.34m1.28,2.68v7.5c0,.52-.12,.91-.37,1.17-.25,.27-.56,.4-.94,.4s-.69-.13-.93-.41c-.23-.28-.36-.66-.36-1.17v-7.43c0-.51,.12-.89,.36-1.15,.24-.26,.55-.39,.93-.39s.69,.13,.94,.39c.25,.26,.37,.62,.37,1.08"/><path class="cls-3" d="M448.12,710.66l-2.28-3.77-1.41,1.33v2.07c0,.5-.13,.88-.4,1.15-.26,.27-.57,.41-.91,.41-.4,0-.71-.13-.94-.4-.23-.26-.34-.66-.34-1.17v-11.06c0-.57,.12-1.01,.33-1.31,.22-.3,.54-.45,.95-.45s.71,.14,.95,.41c.23,.27,.35,.67,.35,1.2v6.29l2.92-3.06c.36-.38,.63-.64,.83-.78,.19-.14,.42-.21,.69-.21,.33,0,.59,.1,.82,.31,.21,.21,.32,.46,.32,.77,0,.38-.35,.89-1.05,1.52l-1.38,1.26,2.66,4.18c.19,.31,.34,.54,.42,.7,.08,.16,.13,.32,.13,.46,0,.41-.12,.73-.34,.97-.22,.24-.52,.35-.88,.35-.32,0-.56-.08-.73-.26-.17-.17-.41-.48-.7-.93"/><path class="cls-3" d="M453.76,711.85c-.39,0-.73-.12-1.01-.38-.29-.25-.43-.61-.43-1.06,0-.38,.14-.72,.41-.99,.28-.28,.61-.42,1.01-.42s.74,.14,1.02,.41c.28,.28,.42,.61,.42,1,0,.45-.14,.81-.42,1.06-.29,.26-.62,.38-1,.38"/><path class="cls-3" d="M466.66,708.64c0,.32-.1,.67-.29,1.03-.19,.37-.49,.72-.89,1.05-.39,.33-.89,.6-1.49,.8-.6,.2-1.28,.31-2.03,.31-1.61,0-2.86-.47-3.76-1.4-.89-.94-1.35-2.19-1.35-3.76,0-1.07,.2-2.01,.62-2.82,.41-.81,1-1.45,1.78-1.89,.78-.45,1.72-.67,2.79-.67,.67,0,1.29,.1,1.85,.29,.56,.2,1.03,.45,1.43,.76,.39,.31,.69,.64,.89,.99,.21,.35,.31,.68,.31,.99s-.11,.57-.34,.79c-.23,.21-.52,.32-.84,.32-.22,0-.4-.06-.54-.17-.14-.11-.3-.29-.48-.54-.32-.48-.65-.84-1-1.08-.34-.24-.78-.36-1.31-.36-.76,0-1.38,.3-1.85,.9-.47,.6-.7,1.42-.7,2.46,0,.49,.06,.94,.18,1.35,.12,.41,.29,.76,.52,1.04,.23,.29,.5,.51,.83,.65,.32,.15,.68,.23,1.06,.23,.52,0,.97-.12,1.34-.36,.38-.24,.7-.61,.99-1.1,.16-.29,.33-.52,.51-.68,.18-.16,.41-.25,.68-.25,.32,0,.58,.12,.79,.36,.21,.24,.32,.5,.32,.77"/><path class="cls-3" d="M477.85,706.58c0,.77-.12,1.48-.36,2.14-.25,.65-.59,1.21-1.05,1.68-.46,.47-1,.83-1.63,1.08-.64,.25-1.35,.38-2.14,.38s-1.49-.13-2.12-.38c-.62-.25-1.17-.61-1.62-1.08-.46-.48-.81-1.03-1.05-1.68-.23-.64-.35-1.36-.35-2.13s.12-1.51,.36-2.16c.24-.65,.59-1.21,1.04-1.67,.45-.46,.99-.82,1.63-1.07,.64-.25,1.35-.37,2.12-.37s1.5,.12,2.14,.38c.64,.25,1.18,.62,1.64,1.08,.46,.47,.8,1.03,1.04,1.67,.23,.65,.35,1.36,.35,2.14m-2.6,0c0-1.06-.23-1.88-.7-2.47-.46-.6-1.09-.89-1.87-.89-.51,0-.96,.13-1.34,.39-.39,.26-.68,.65-.89,1.16-.21,.51-.31,1.11-.31,1.8s.1,1.27,.31,1.77c.21,.51,.5,.9,.89,1.17,.38,.27,.83,.4,1.35,.4,.79,0,1.41-.3,1.87-.89,.46-.59,.7-1.41,.7-2.45"/><path class="cls-3" d="M487.74,706.77v3.45c0,.55-.12,.95-.37,1.23-.25,.27-.57,.41-.98,.41s-.71-.13-.95-.41c-.25-.28-.37-.68-.37-1.23v-4.13c0-.65-.02-1.16-.06-1.53-.04-.35-.17-.65-.36-.88-.2-.23-.51-.35-.93-.35-.85,0-1.41,.29-1.68,.88-.27,.58-.41,1.41-.41,2.51v3.5c0,.54-.12,.95-.36,1.22-.25,.27-.57,.41-.96,.41s-.72-.14-.97-.41c-.25-.28-.38-.69-.38-1.22v-7.42c0-.49,.11-.86,.34-1.11,.23-.26,.53-.38,.89-.38s.65,.12,.89,.36c.24,.24,.35,.57,.35,.98v.24c.45-.54,.94-.93,1.45-1.18,.52-.26,1.08-.39,1.71-.39s1.21,.13,1.68,.39c.47,.26,.85,.65,1.16,1.18,.44-.53,.91-.92,1.41-1.18,.5-.26,1.05-.39,1.66-.39,.71,0,1.32,.14,1.83,.42,.51,.28,.89,.68,1.15,1.2,.22,.47,.33,1.21,.33,2.22v5.06c0,.55-.12,.95-.37,1.23-.25,.27-.57,.41-.98,.41s-.71-.14-.96-.41c-.25-.28-.38-.69-.38-1.22v-4.36c0-.56-.02-1-.07-1.34-.05-.34-.18-.62-.38-.85-.21-.23-.53-.34-.95-.34-.34,0-.67,.11-.97,.31-.31,.2-.55,.48-.72,.81-.19,.44-.28,1.21-.28,2.32"/></g><g><path class="cls-3" d="M367.03,705.95s0,0,0-.02c0,0,0,.01,0,.02Z"/><path class="cls-3" d="M367.16,706.78h0c-.05-.24-.09-.47-.12-.7,.03,.23,.07,.47,.12,.7Z"/><path class="cls-3" d="M368.02,709.19s-.01-.02-.02-.03c0,.01,.01,.02,.02,.03Z"/><path class="cls-3" d="M367.94,709.03s-.04-.09-.07-.13c.02,.05,.04,.09,.07,.13Z"/><path class="cls-3" d="M367.4,707.71c.13,.4,.28,.79,.46,1.16-.18-.38-.33-.77-.45-1.16h0Z"/><path class="cls-3" d="M377.07,696.01c.5,0,.87,.04,1.29,.11l.12-.76s-1.17-.36-2.71-.23l-.12-.41c.48-.1,.84-.53,.84-1.04,0-.58-.47-1.05-1.06-1.05s-1.06,.47-1.06,1.05c0,.51,.36,.93,.84,1.04l.13,.46c-1.63,.22-2.94,.86-2.94,.86l.23,.71c.99-.33,1.85-.53,2.62-.61,.76-.08,1.34-.12,1.8-.12Z"/><path class="cls-3" d="M368,699.87h0c.04-.06,.08-.1,.11-.15l-.31-.22-.49-.36s-.79,.74-1.4,2.05c-.03-.04-.06-.08-.09-.12-.18-.2-.44-.3-.76-.3h-.01c-.2,0-.34-.07-.43-.15,.09-.11,.14-.26,.14-.41,0-.37-.3-.67-.67-.67s-.67,.3-.67,.67,.3,.67,.67,.67c.06,0,.11,0,.17-.02,.16,.18,.43,.34,.81,.33,.2,0,.34,.05,.44,.16,.11,.12,.15,.29,.16,.43,0,0,0,0,0,0-.44,1.19-.31,2.67-.31,2.67l1.06,.04c.02-.54,.1-1.48,.37-2.23,.53-1.45,1.19-2.36,1.21-2.39Z"/><path class="cls-3" d="M386.27,696.9c-.37,0-.67,.3-.67,.67,0,.06,0,.11,.02,.16-.18,.17-.34,.43-.34,.81,0,.2-.05,.34-.15,.44-.08,.07-.19,.12-.29,.14-.79-1.1-1.76-1.78-1.76-1.78l-.76,.81c.57,.52,1.16,1.18,1.73,1.99,.39,.56,.8,1.29,1.14,2.02l1.02-.49s-.47-1.16-1.12-2.19c.11-.04,.23-.1,.33-.19,.2-.18,.3-.44,.29-.76,0-.21,.07-.35,.15-.44,.12,.09,.26,.14,.41,.14,.37,0,.67-.3,.67-.67s-.3-.67-.67-.67Z"/><path class="cls-3" d="M383.61,706.1c-1.41,.69-3.73,1.59-6.78,2.02-1.2,.17-2.36,.23-3.43,.23-1.39,0-2.62-.1-3.56-.22-1.08-.13-1.92-.3-2.43-.42,.12,.39,.27,.78,.45,1.16,0,0,0,.02,.01,.03,.02,.04,.04,.09,.07,.13,.02,.04,.04,.09,.06,.13,0,.01,.01,.02,.02,.03,.3,.57,.67,1.09,1.08,1.55,1.44,1.57,2.91,1.82,2.92,1.83h.02s.02,0,.02,0c.01,0,1.31,.43,3.29,.43s3.85-.39,5.67-1.17c1.35-.69,2.62-1.74,3.25-2.67,.49-.72,.84-1.49,1.05-2.29,.11-.43,.2-1.11,.15-1.83-.4,.27-1.02,.65-1.87,1.06Z"/><path class="cls-3" d="M368.45,700.21c-.04,.06-.65,.93-1.14,2.25-.36,.99-.35,2.44-.35,2.46h0c0,.34,.02,.68,.06,1.01,0,0,0,.01,0,.02,0,.04,.01,.08,.02,.13,.03,.23,.07,.47,.12,.7,.7,.18,4.88,1.15,9.55,.5,2.93-.41,5.15-1.27,6.5-1.93,1.12-.54,1.84-1.04,2.12-1.24-.28-1.03-1.04-2.64-1.74-3.65-2.01-2.87-4.17-3.6-5.28-3.78-.42-.07-.76-.11-1.24-.11-.45,0-1,.04-1.74,.12-.74,.08-1.57,.27-2.53,.6-1.35,.45-2.57,1.16-3.53,2.05l-.03,.03c-.14,.13-.44,.41-.78,.84Zm12.27-.67c.96,0,1.74,.78,1.74,1.74s-.78,1.74-1.74,1.74-1.74-.78-1.74-1.74,.78-1.74,1.74-1.74Zm-8.24-.07c1.56,0,2.82,1.26,2.82,2.82s-1.26,2.81-2.82,2.81-2.82-1.26-2.82-2.81,1.26-2.82,2.82-2.82Z"/></g></g><g><g><g><path class="cls-1" d="M98.4,74.19c1.57,.98,2.68,2.62,2.95,4.53h.44c.27-1.91,1.38-3.55,2.95-4.53h-6.34Z"/><path class="cls-1" d="M243.8,74.19h-6.34c1.57,.98,2.68,2.62,2.95,4.53h.44c.27-1.91,1.38-3.55,2.95-4.53Z"/><path class="cls-1" d="M91.63,74.19h-6.34c1.57,.98,2.68,2.62,2.95,4.53h.44c.27-1.91,1.38-3.55,2.95-4.53Z"/><path class="cls-1" d="M250.57,74.19c1.57,.98,2.68,2.62,2.95,4.53h.44c.27-1.91,1.38-3.55,2.95-4.53h-6.34Z"/><path class="cls-1" d="M75.56,78.72c.27-1.91,1.38-3.55,2.95-4.53h-4.14v4.44h.56v.09h.63Z"/><path class="cls-1" d="M263.69,74.19c1.57,.98,2.68,2.62,2.95,4.53h.73v-4.53h-3.69Z"/><path class="cls-1" d="M230.68,74.19h-4.28v4.53h1.33c.27-1.91,1.38-3.55,2.95-4.53Z"/><path class="cls-1" d="M111.52,74.19c1.57,.98,2.68,2.62,2.95,4.53h.87v-4.53h-3.82Z"/><rect class="cls-2" x="70.54" y="18.8" width="200.66" height="3"/><polygon class="cls-2" points="271.2 13.92 261.6 13.92 253.79 9.95 216.72 9.95 208.91 13.92 177.63 13.92 177.63 10.93 164.12 10.93 164.12 13.92 132.84 13.92 125.03 9.95 87.96 9.95 80.15 13.92 70.54 13.92 70.54 17.97 271.2 17.97 271.2 13.92"/><g><path class="cls-2" d="M107.34,53.84l11.21,4.4h14.13V23.54h34.7V58.24h58.92l9.13-4.42h8.87V23.54h23.61v30.27h3.15l5.09-3.52h3.06v-2.51h-8.01V22.42H70.54v31.39h36.73l.07,.03Zm111.93-24.45c0-2.08,1.68-3.76,3.76-3.76h9.68c2.08,0,3.76,1.68,3.76,3.76v13.8c0,2.08-1.68,3.76-3.76,3.76h-9.68c-2.08,0-3.76-1.68-3.76-3.76v-13.8Zm-22.99,0c0-2.08,1.68-3.76,3.76-3.76h9.68c2.08,0,3.76,1.68,3.76,3.76v13.8c0,2.08-1.68,3.76-3.76,3.76h-9.68c-2.08,0-3.76-1.68-3.76-3.76v-13.8Zm-22.99,0c0-2.08,1.68-3.76,3.76-3.76h9.68c2.08,0,3.76,1.68,3.76,3.76v13.8c0,2.08-1.68,3.76-3.76,3.76h-9.68c-2.08,0-3.76-1.68-3.76-3.76v-13.8Zm-65.01,0c0-2.08,1.68-3.76,3.76-3.76h9.68c2.08,0,3.76,1.68,3.76,3.76v13.8c0,2.08-1.68,3.76-3.76,3.76h-9.68c-2.08,0-3.76-1.68-3.76-3.76v-13.8Zm-5.79,13.8c0,2.08-1.68,3.76-3.76,3.76h-9.68c-2.08,0-3.76-1.68-3.76-3.76v-13.8c0-2.08,1.68-3.76,3.76-3.76h9.68c2.08,0,3.76,1.68,3.76,3.76v13.8Z"/><path class="cls-2" d="M149.62,24.38h-16.09V58.24h16.09V24.38Zm-2.58,18.95c0,2.08-1.68,3.76-3.76,3.76h-3.62c-2.08,0-3.76-1.68-3.76-3.76v-14.07c0-2.08,1.68-3.76,3.76-3.76h3.62c2.08,0,3.76,1.68,3.76,3.76v14.07Z"/><rect class="cls-2" x="133.53" y="59.07" width="16.09" height="12.12"/><path class="cls-2" d="M287.22,79.08h-2.5v-.44h-3.52v-1.58h-1.99v-25.92h-2.8l-5.09,3.52h-3.42v16.62h-23.61v-16.62h-8.68l-9.13,4.42h-59.11v12.96h-34.7v-12.96h-14.29l-.07-.03-11.21-4.4h-36.57v23.98h-2.37v.44h-2.5l-4.05-1.43v5.92l4.05-1.43h2.5v.44h6.76v-2.3h.59c.33,3.23,3.06,5.75,6.37,5.75s6.04-2.52,6.38-5.75h.37c.33,3.23,3.06,5.75,6.37,5.75s6.04-2.52,6.38-5.75h.37c.33,3.23,3.06,5.75,6.37,5.75s6.04-2.52,6.38-5.75h.84v.66h111.06v-.66h1.29c.33,3.23,3.06,5.75,6.38,5.75s6.04-2.52,6.38-5.75h.36c.33,3.23,3.06,5.75,6.38,5.75s6.04-2.52,6.38-5.75h.36c.33,3.23,3.06,5.75,6.38,5.75s6.04-2.52,6.38-5.75h.7v.66h10.59v1.63h6.76v-.44h2.5l4.05,1.43v-5.92l-4.05,1.43Zm-211.66-.35h-.63v-.09h-.56v-4.44h4.14c-1.57,.98-2.68,2.62-2.95,4.53Zm13.12,0h-.44c-.27-1.91-1.38-3.55-2.95-4.53h6.34c-1.57,.98-2.68,2.62-2.95,4.53Zm13.12,0h-.44c-.27-1.91-1.38-3.55-2.95-4.53h6.34c-1.57,.98-2.68,2.62-2.95,4.53Zm13.55,0h-.87c-.27-1.91-1.38-3.55-2.95-4.53h3.82v4.53Zm112.39,0h-1.33v-4.53h4.28c-1.57,.98-2.68,2.62-2.95,4.53Zm13.12,0h-.44c-.27-1.91-1.38-3.55-2.95-4.53h6.34c-1.57,.98-2.68,2.62-2.95,4.53Zm13.12,0h-.44c-.27-1.91-1.38-3.55-2.95-4.53h6.34c-1.57,.98-2.68,2.62-2.95,4.53Zm13.41,0h-.73c-.27-1.91-1.38-3.55-2.95-4.53h3.69v4.53Z"/><rect class="cls-2" x="150.46" y="59.07" width="16.09" height="12.12"/><path class="cls-2" d="M166.55,24.38h-16.09V58.24h16.09V24.38Zm-2.37,18.95c0,2.08-1.68,3.76-3.76,3.76h-3.62c-2.08,0-3.76-1.68-3.76-3.76v-14.07c0-2.08,1.68-3.76,3.76-3.76h3.62c2.08,0,3.76,1.68,3.76,3.76v14.07Z"/><path class="cls-2" d="M267.08,24.38h-21.94v29.44h21.94V24.38Zm-2.37,18.81c0,2.08-1.68,3.76-3.76,3.76h-9.68c-2.08,0-3.76-1.68-3.76-3.76v-13.8c0-2.08,1.68-3.76,3.76-3.76h9.68c2.08,0,3.76,1.68,3.76,3.76v13.8Z"/><rect class="cls-2" x="245.15" y="54.65" width="21.94" height="15.78"/></g></g><g><path class="cls-1" d="M328.05,74.19c1.57,.98,2.68,2.62,2.95,4.53h.44c.27-1.91,1.38-3.55,2.95-4.53h-6.34Z"/><path class="cls-1" d="M473.44,74.19h-6.34c1.57,.98,2.68,2.62,2.95,4.53h.44c.27-1.91,1.38-3.55,2.95-4.53Z"/><path class="cls-1" d="M321.28,74.19h-6.34c1.57,.98,2.68,2.62,2.95,4.53h.44c.27-1.91,1.38-3.55,2.95-4.53Z"/><path class="cls-1" d="M480.22,74.19c1.57,.98,2.68,2.62,2.95,4.53h.44c.27-1.91,1.38-3.55,2.95-4.53h-6.34Z"/><path class="cls-1" d="M305.21,78.72c.27-1.91,1.38-3.55,2.95-4.53h-4.14v4.44h.56v.09h.63Z"/><path class="cls-1" d="M493.33,74.19c1.57,.98,2.68,2.62,2.95,4.53h.73v-4.53h-3.69Z"/><path class="cls-1" d="M460.33,74.19h-4.28v4.53h1.32c.27-1.91,1.38-3.55,2.95-4.53Z"/><path class="cls-1" d="M341.17,74.19c1.57,.98,2.68,2.62,2.95,4.53h.87v-4.53h-3.82Z"/><rect class="cls-2" x="300.19" y="18.8" width="200.66" height="3"/><polygon class="cls-2" points="500.85 13.92 491.24 13.92 483.43 9.95 446.37 9.95 438.55 13.92 407.28 13.92 407.28 10.93 393.76 10.93 393.76 13.92 362.49 13.92 354.67 9.95 317.61 9.95 309.8 13.92 300.19 13.92 300.19 17.97 500.85 17.97 500.85 13.92"/><g><path class="cls-2" d="M336.99,53.84l11.21,4.4h14.13V23.54h34.7V58.24h58.92l9.13-4.42h8.87V23.54h23.61v30.27h3.15l5.09-3.52h3.06v-2.51h-8.01V22.42h-200.66v31.39h36.73l.07,.03Zm111.92-24.45c0-2.08,1.69-3.76,3.76-3.76h9.68c2.08,0,3.76,1.68,3.76,3.76v13.8c0,2.08-1.68,3.76-3.76,3.76h-9.68c-2.08,0-3.76-1.68-3.76-3.76v-13.8Zm-22.99,0c0-2.08,1.69-3.76,3.76-3.76h9.68c2.08,0,3.76,1.68,3.76,3.76v13.8c0,2.08-1.68,3.76-3.76,3.76h-9.68c-2.08,0-3.76-1.68-3.76-3.76v-13.8Zm-22.99,0c0-2.08,1.69-3.76,3.76-3.76h9.68c2.08,0,3.76,1.68,3.76,3.76v13.8c0,2.08-1.68,3.76-3.76,3.76h-9.68c-2.08,0-3.76-1.68-3.76-3.76v-13.8Zm-65.01,0c0-2.08,1.68-3.76,3.76-3.76h9.68c2.08,0,3.76,1.68,3.76,3.76v13.8c0,2.08-1.68,3.76-3.76,3.76h-9.68c-2.08,0-3.76-1.68-3.76-3.76v-13.8Zm-5.79,13.8c0,2.08-1.68,3.76-3.76,3.76h-9.68c-2.08,0-3.76-1.68-3.76-3.76v-13.8c0-2.08,1.68-3.76,3.76-3.76h9.68c2.08,0,3.76,1.68,3.76,3.76v13.8Z"/><path class="cls-2" d="M379.27,24.38h-16.09V58.24h16.09V24.38Zm-2.58,18.95c0,2.08-1.68,3.76-3.76,3.76h-3.62c-2.08,0-3.76-1.68-3.76-3.76v-14.07c0-2.08,1.68-3.76,3.76-3.76h3.62c2.08,0,3.76,1.68,3.76,3.76v14.07Z"/><rect class="cls-2" x="363.17" y="59.07" width="16.09" height="12.12"/><path class="cls-2" d="M516.87,79.08h-2.5v-.44h-3.52v-1.58h-1.99v-25.92h-2.79l-5.09,3.52h-3.42v16.62h-23.61v-16.62h-8.68l-9.13,4.42h-59.11v12.96h-34.7v-12.96h-14.29l-.07-.03-11.21-4.4h-36.57v23.98h-2.37v.44h-2.5l-4.05-1.43v5.92l4.05-1.43h2.5v.44h6.76v-2.3h.59c.33,3.23,3.06,5.75,6.37,5.75s6.04-2.52,6.38-5.75h.37c.33,3.23,3.06,5.75,6.37,5.75s6.04-2.52,6.38-5.75h.37c.33,3.23,3.06,5.75,6.37,5.75s6.04-2.52,6.38-5.75h.84v.66h111.06v-.66h1.29c.33,3.23,3.06,5.75,6.38,5.75s6.04-2.52,6.37-5.75h.37c.33,3.23,3.06,5.75,6.37,5.75s6.04-2.52,6.38-5.75h.36c.33,3.23,3.06,5.75,6.38,5.75s6.04-2.52,6.37-5.75h.7v.66h10.59v1.63h6.76v-.44h2.5l4.05,1.43v-5.92l-4.05,1.43Zm-211.66-.35h-.63v-.09h-.56v-4.44h4.14c-1.57,.98-2.68,2.62-2.95,4.53Zm13.12,0h-.44c-.27-1.91-1.38-3.55-2.95-4.53h6.34c-1.57,.98-2.68,2.62-2.95,4.53Zm13.12,0h-.44c-.27-1.91-1.38-3.55-2.95-4.53h6.34c-1.57,.98-2.68,2.62-2.95,4.53Zm13.55,0h-.87c-.27-1.91-1.38-3.55-2.95-4.53h3.82v4.53Zm112.38,0h-1.32v-4.53h4.28c-1.57,.98-2.68,2.62-2.95,4.53Zm13.12,0h-.44c-.27-1.91-1.38-3.55-2.95-4.53h6.34c-1.57,.98-2.68,2.62-2.95,4.53Zm13.12,0h-.44c-.27-1.91-1.38-3.55-2.95-4.53h6.34c-1.57,.98-2.68,2.62-2.95,4.53Zm13.41,0h-.73c-.27-1.91-1.38-3.55-2.95-4.53h3.69v4.53Z"/><rect class="cls-2" x="380.11" y="59.07" width="16.09" height="12.12"/><path class="cls-2" d="M396.2,24.38h-16.09V58.24h16.09V24.38Zm-2.37,18.95c0,2.08-1.68,3.76-3.76,3.76h-3.62c-2.08,0-3.76-1.68-3.76-3.76v-14.07c0-2.08,1.68-3.76,3.76-3.76h3.62c2.08,0,3.76,1.68,3.76,3.76v14.07Z"/><path class="cls-2" d="M496.73,24.38h-21.94v29.44h21.94V24.38Zm-2.37,18.81c0,2.08-1.68,3.76-3.76,3.76h-9.68c-2.08,0-3.76-1.68-3.76-3.76v-13.8c0-2.08,1.69-3.76,3.76-3.76h9.68c2.08,0,3.76,1.68,3.76,3.76v13.8Z"/><rect class="cls-2" x="474.79" y="54.65" width="21.94" height="15.78"/></g></g><g><rect class="cls-1" x="561.8" y="9.5" width="28.02" height="10.02"/><path class="cls-1" d="M640.78,72.67c0,.15,.02,.29,.02,.44,0-.15,.02-.29,.02-.44h-.04Z"/><path class="cls-1" d="M614.91,72.67c0,.15,.02,.29,.02,.44,0-.15,.02-.29,.02-.44h-.04Z"/><path class="cls-1" d="M544.81,78.72h.73c.27-1.91,1.38-3.55,2.95-4.53h-3.69v4.53Z"/><rect class="cls-1" x="543.4" y="9.5" width="15.63" height="20.21"/><path class="cls-1" d="M571.34,78.72h.44c.27-1.91,1.38-3.55,2.95-4.53h-6.34c1.57,.98,2.68,2.62,2.95,4.53Z"/><path class="cls-1" d="M584.46,78.72h1.32v-4.53h-4.28c1.57,.98,2.68,2.62,2.95,4.53Z"/><path class="cls-1" d="M558.23,78.72h.44c.27-1.91,1.38-3.55,2.95-4.53h-6.34c1.57,.98,2.68,2.62,2.95,4.53Z"/><rect class="cls-2" x="534.67" width="62.67" height="4.17"/><path class="cls-2" d="M669.4,50.5v-2.63h-26.63l-4.75,7.15h-84.37l-6.25-7.15h-8.8v5.22l-2.84-1.96h-2.79v25.92h-1.99v1.58h-3.52v.44h-2.5l-4.05-1.43v5.92l4.05-1.43h2.5v.44h6.76v-1.63h10.59v-.66h.7c.33,3.23,3.06,5.75,6.37,5.75s6.04-2.52,6.38-5.75h.36c.33,3.23,3.06,5.75,6.38,5.75s6.04-2.52,6.37-5.75h.37c.33,3.23,3.06,5.75,6.37,5.75s6.04-2.52,6.38-5.75h1.29v.66h5.95c2.36,3.09,6.08,5.09,10.26,5.09,7.14,0,12.94-5.79,12.94-12.93,0-.15-.02-.29-.02-.44h.04c0,.15-.02,.29-.02,.44,0,7.14,5.79,12.93,12.93,12.93s12.94-5.79,12.94-12.93c0-.15-.02-.29-.02-.44h.04c0,.15-.02,.29-.02,.44,0,7.14,5.79,12.93,12.93,12.93,4.57,0,8.58-2.37,10.88-5.95l19.95,6.58v-16.83h3v-19.33h-18.17Zm-123.85,28.22h-.73v-4.53h3.69c-1.57,.98-2.68,2.62-2.95,4.53Zm13.12,0h-.44c-.27-1.91-1.38-3.55-2.95-4.53h6.34c-1.57,.98-2.68,2.62-2.95,4.53Zm13.12,0h-.44c-.27-1.91-1.38-3.55-2.95-4.53h6.34c-1.57,.98-2.68,2.62-2.95,4.53Zm14,0h-1.32c-.27-1.91-1.38-3.55-2.95-4.53h4.28v4.53Z"/><polygon class="cls-2" points="639.67 22.05 650 22.05 650 18.36 654.5 18.36 654.5 9.56 635.17 9.56 635.17 18.36 639.67 18.36 639.67 22.05"/><polygon class="cls-2" points="660.99 22.05 666.71 22.05 666.71 19.09 669.19 19.09 669.19 14.23 658.5 14.23 658.5 19.09 660.99 19.09 660.99 22.05"/><path class="cls-2" d="M631,22.05v-5.07c0-2.85-2.31-5.17-5.17-5.17s-5.17,2.31-5.17,5.17v5.07h10.33Z"/><path class="cls-2" d="M612.33,22.05v-5.07c0-2.85-2.31-5.17-5.17-5.17s-5.17,2.31-5.17,5.17v5.07h10.33Z"/><g><polygon class="cls-2" points="589.82 54.27 637.62 54.27 642.37 47.12 669.4 47.12 669.4 34.88 589.82 34.88 589.82 54.27"/><path class="cls-2" d="M593.4,22.8V5.17h-54.8V47.12h9.14l6.25,7.15h35.08V19.52h-27.27V9.5h28.02v24.62h79.58v-11.33h-76Zm-34.37,6.91h-15.63V9.5h15.63V29.71Z"/></g></g></g><rect class="cls-2" x="24.93" y="85.04" width="699.33" height="2"/></g><g><rect class="cls-2" x="24.93" y="275" width="699.33" height="2"/><rect class="cls-2" x="24.93" y="189.99" width="699.33" height="2"/><g><path class="cls-1" d="M518.61,209.77h-23.65c-.56,0-1.01,.45-1.01,1.01v41.76c0,.56,.45,1.01,1.01,1.01h23.65c.56,0,1.01-.45,1.01-1.01v-41.76c0-.56-.45-1.01-1.01-1.01Zm0,42.77s0,.01,0,.01h-11.32s0,.5,0,.5h-1v-.51h-11.33s0-41.78,0-41.78h11.32s0-.5,0-.5h1v.51h11.33v41.77Z"/><path class="cls-1" d="M143.92,210.57h-28.5c-.83,0-1.5,.67-1.5,1.5v21.77c0,.83,.67,1.5,1.5,1.5h28.5c.83,0,1.5-.67,1.5-1.5v-21.77c0-.83-.67-1.5-1.5-1.5Zm.5,23.27c0,.28-.22,.5-.5,.5h-28.5c-.28,0-.5-.22-.5-.5v-21.77c0-.28,.22-.5,.5-.5h28.5c.28,0,.5,.22,.5,.5v21.77Z"/><rect class="cls-1" x="506.28" y="210.77" width="1" height="41.77"/><path class="cls-1" d="M103.57,209.77h-23.65c-.56,0-1.01,.45-1.01,1.01v41.76c0,.56,.45,1.01,1.01,1.01h23.65c.56,0,1.01-.45,1.01-1.01v-41.76c0-.56-.45-1.01-1.01-1.01Zm.01,42.77s0,.01-.01,.01h-11.32s0,.5,0,.5h-1v-.51h-11.33s.01-41.78,.01-41.78h11.32s0-.5,0-.5h1v.51h11.33v41.77Z"/><path class="cls-1" d="M558.7,210.57h-28.5c-.83,0-1.5,.67-1.5,1.5v21.77c0,.83,.67,1.5,1.5,1.5h28.5c.83,0,1.5-.67,1.5-1.5v-21.77c0-.83-.67-1.5-1.5-1.5Zm.5,23.27c0,.28-.22,.5-.5,.5h-28.5c-.28,0-.5-.22-.5-.5v-21.77c0-.28,.22-.5,.5-.5h28.5c.28,0,.5,.22,.5,.5v21.77Z"/><rect class="cls-1" x="91.24" y="210.77" width="1" height="41.77"/><path class="cls-1" d="M178.9,209.77h-23.65c-.56,0-1.01,.45-1.01,1.01v41.76c0,.56,.45,1.01,1.01,1.01h23.65c.56,0,1.01-.45,1.01-1.01v-41.76c0-.56-.45-1.01-1.01-1.01Zm.01,42.77s0,.01-.01,.01h-11.32s0,.5,0,.5h-1v-.51h-11.33s.01-41.78,.01-41.78h11.32s0-.5,0-.5h1v.51h11.33v41.77Z"/><rect class="cls-1" x="430.95" y="210.77" width="1" height="41.77"/><path class="cls-1" d="M218.99,210.57h-28.5c-.83,0-1.5,.67-1.5,1.5v21.77c0,.83,.67,1.5,1.5,1.5h28.5c.83,0,1.5-.67,1.5-1.5v-21.77c0-.83-.67-1.5-1.5-1.5Zm.5,23.27c0,.28-.22,.5-.5,.5h-28.5c-.28,0-.5-.22-.5-.5v-21.77c0-.28,.22-.5,.5-.5h28.5c.28,0,.5,.22,.5,.5v21.77Z"/><rect class="cls-1" x="241.91" y="210.77" width="1" height="41.77"/><path class="cls-1" d="M443.27,209.77h-23.65c-.56,0-1.01,.45-1.01,1.01v41.76c0,.56,.45,1.01,1.01,1.01h23.65c.56,0,1.01-.45,1.01-1.01v-41.76c0-.56-.45-1.01-1.01-1.01Zm0,42.77s0,.01,0,.01h-11.32s0,.5,0,.5h-1v-.51h-11.33s0-41.78,0-41.78h11.32s0-.5,0-.5h1v.51h11.33v41.77Z"/><rect class="cls-1" x="166.58" y="210.77" width="1" height="41.77"/><path class="cls-1" d="M483.62,210.57h-28.5c-.83,0-1.5,.67-1.5,1.5v21.77c0,.83,.67,1.5,1.5,1.5h28.5c.83,0,1.5-.67,1.5-1.5v-21.77c0-.83-.67-1.5-1.5-1.5Zm.5,23.27c0,.28-.22,.5-.5,.5h-28.5c-.28,0-.5-.22-.5-.5v-21.77c0-.28,.22-.5,.5-.5h28.5c.28,0,.5,.22,.5,.5v21.77Z"/><path class="cls-1" d="M406.43,209.77h-11.65c-.56,0-1.01,.45-1.01,1.01v41.76c0,.56,.45,1.01,1.01,1.01h11.65c.56,0,1.01-.45,1.01-1.01v-41.76c0-.56-.45-1.01-1.01-1.01Zm0,42.77s0,.01,0,.01h-11.66s0-41.78,0-41.78h11.66v41.77Z"/><path class="cls-1" d="M354.41,209.77h-11.65c-.56,0-1.01,.45-1.01,1.01v41.76c0,.56,.45,1.01,1.01,1.01h11.65c.56,0,1.01-.45,1.01-1.01v-41.76c0-.56-.45-1.01-1.01-1.01Zm.01,42.77s0,.01-.01,.01h-11.66s.01-41.78,.01-41.78h11.66v41.77Z"/><path class="cls-1" d="M669.28,209.77h-23.65c-.56,0-1.01,.45-1.01,1.01v41.76c0,.56,.45,1.01,1.01,1.01h23.65c.56,0,1.01-.45,1.01-1.01v-41.76c0-.56-.45-1.01-1.01-1.01Zm0,42.77s0,.01,0,.01h-11.32s0,.5,0,.5h-1v-.51h-11.33s0-41.78,0-41.78h11.32s0-.5,0-.5h1v.51h11.33v41.77Z"/><rect class="cls-1" x="656.95" y="210.77" width="1" height="41.77"/><path class="cls-1" d="M294.07,210.57h-28.5c-.83,0-1.5,.67-1.5,1.5v21.77c0,.83,.67,1.5,1.5,1.5h28.5c.83,0,1.5-.67,1.5-1.5v-21.77c0-.83-.67-1.5-1.5-1.5Zm.5,23.27c0,.28-.22,.5-.5,.5h-28.5c-.28,0-.5-.22-.5-.5v-21.77c0-.28,.22-.5,.5-.5h28.5c.28,0,.5,.22,.5,.5v21.77Z"/><path class="cls-1" d="M329.57,209.77h-23.65c-.56,0-1.01,.45-1.01,1.01v41.76c0,.56,.45,1.01,1.01,1.01h23.65c.56,0,1.01-.45,1.01-1.01v-41.76c0-.56-.45-1.01-1.01-1.01Zm.01,42.77s0,.01-.01,.01h-11.32s0,.5,0,.5h-1v-.51h-11.33s.01-41.78,.01-41.78h11.32s0-.5,0-.5h1v.51h11.33v41.77Z"/><path class="cls-1" d="M694.11,209.77h-11.64c-.56,0-1.01,.45-1.01,1.01v41.76c0,.56,.45,1.01,1.01,1.01h11.64c.56,0,1.01-.45,1.01-1.01v-41.76c0-.56-.45-1.01-1.01-1.01Zm.01,42.77s0,.01-.01,.01h-11.66s.01-41.78,.01-41.78h11.66v41.77Z"/><rect class="cls-1" x="317.25" y="210.77" width="1" height="41.77"/><path class="cls-1" d="M593.94,209.77h-23.65c-.56,0-1.01,.45-1.01,1.01v41.76c0,.56,.45,1.01,1.01,1.01h23.65c.56,0,1.01-.45,1.01-1.01v-41.76c0-.56-.45-1.01-1.01-1.01Zm0,42.77s0,.01,0,.01h-11.32s0,.5,0,.5h-1v-.51h-11.33s0-41.78,0-41.78h11.32s0-.5,0-.5h1v.51h11.33v41.77Z"/><path class="cls-1" d="M66.73,209.77h-11.65c-.56,0-1.01,.45-1.01,1.01v41.76c0,.56,.45,1.01,1.01,1.01h11.65c.56,0,1.01-.45,1.01-1.01v-41.76c0-.56-.45-1.01-1.01-1.01Zm0,42.77s0,.01,0,.01h-11.66s0-41.78,0-41.78h11.66v41.77Z"/><rect class="cls-1" x="581.62" y="210.77" width="1" height="41.77"/><path class="cls-1" d="M633.78,210.57h-28.5c-.83,0-1.5,.67-1.5,1.5v21.77c0,.83,.67,1.5,1.5,1.5h28.5c.83,0,1.5-.67,1.5-1.5v-21.77c0-.83-.67-1.5-1.5-1.5Zm.5,23.27c0,.28-.22,.5-.5,.5h-28.5c-.28,0-.5-.22-.5-.5v-21.77c0-.28,.22-.5,.5-.5h28.5c.28,0,.5,.22,.5,.5v21.77Z"/><path class="cls-1" d="M254.23,209.77h-23.65c-.56,0-1.01,.45-1.01,1.01v41.76c0,.56,.45,1.01,1.01,1.01h23.65c.56,0,1.01-.45,1.01-1.01v-41.76c0-.56-.45-1.01-1.01-1.01Zm.01,42.77s0,.01-.01,.01h-11.32s0,.5,0,.5h-1v-.51h-11.33s.01-41.78,.01-41.78h11.32s0-.5,0-.5h1v.51h11.33v41.77Z"/><path class="cls-2" d="M230.59,210.77v41.77s11.32,0,11.32,0v-41.77h-11.32Zm9.82,23.42c0,.64-.52,1.16-1.16,1.16h-6.06c-.64,0-1.16-.52-1.16-1.16v-21.31c0-.64,.52-1.16,1.16-1.16h6.06c.64,0,1.16,.52,1.16,1.16v21.31Z"/><path class="cls-2" d="M155.25,210.77v41.77s11.32,0,11.32,0v-41.77h-11.32Zm9.82,23.42c0,.64-.52,1.16-1.16,1.16h-6.06c-.64,0-1.16-.52-1.16-1.16v-21.31c0-.64,.52-1.16,1.16-1.16h6.06c.64,0,1.16,.52,1.16,1.16v21.31Z"/><path class="cls-2" d="M167.58,252.54h11.32s.01,0,.01,0v-41.76h-11.33s0,41.77,0,41.77Zm1.5-39.66c0-.64,.52-1.16,1.16-1.16h6.06c.64,0,1.16,.52,1.16,1.16v21.31c0,.64-.52,1.16-1.16,1.16h-6.06c-.64,0-1.16-.52-1.16-1.16v-21.31Z"/><path class="cls-2" d="M143.92,211.57h-28.5c-.28,0-.5,.22-.5,.5v21.77c0,.28,.22,.5,.5,.5h28.5c.28,0,.5-.22,.5-.5v-21.77c0-.28-.22-.5-.5-.5Zm-2.62,17.55c0,.83-.67,1.5-1.5,1.5h-20.25c-.83,0-1.5-.67-1.5-1.5v-4.38c0-.83,.67-1.5,1.5-1.5h20.25c.83,0,1.5,.67,1.5,1.5v4.38Zm0-7.96c0,.83-.67,1.5-1.5,1.5h-20.25c-.83,0-1.5-.67-1.5-1.5v-4.38c0-.83,.67-1.5,1.5-1.5h20.25c.83,0,1.5,.67,1.5,1.5v4.38Z"/><path class="cls-2" d="M218.99,211.57h-28.5c-.28,0-.5,.22-.5,.5v21.77c0,.28,.22,.5,.5,.5h28.5c.28,0,.5-.22,.5-.5v-21.77c0-.28-.22-.5-.5-.5Zm-2.62,17.55c0,.83-.67,1.5-1.5,1.5h-20.25c-.83,0-1.5-.67-1.5-1.5v-4.38c0-.83,.67-1.5,1.5-1.5h20.25c.83,0,1.5,.67,1.5,1.5v4.38Zm0-7.96c0,.83-.67,1.5-1.5,1.5h-20.25c-.83,0-1.5-.67-1.5-1.5v-4.38c0-.83,.67-1.5,1.5-1.5h20.25c.83,0,1.5,.67,1.5,1.5v4.38Z"/><path class="cls-2" d="M55.07,252.54h11.66s0,0,0,0v-41.76h-11.66s0,41.76,0,41.76Zm1.65-39.66c0-.64,.52-1.16,1.16-1.16h6.06c.64,0,1.16,.52,1.16,1.16v21.31c0,.64-.52,1.16-1.16,1.16h-6.06c-.64,0-1.16-.52-1.16-1.16v-21.31Z"/><path class="cls-2" d="M366.41,203.57h-51.79c.21-.18,.36-.45,.36-.75,0-.55-.45-1-1-1h-8.5l-12.96-3.9,14.45-4.99c.52-.18,.8-.75,.62-1.27-.18-.52-.75-.8-1.27-.62l-17.37,6c-.41,.14-.68,.53-.67,.97,0,.43,.3,.81,.71,.94l15.37,4.63H120.86c.21-.18,.36-.45,.36-.75,0-.55-.45-1-1-1h-8.5l-12.96-3.9,14.45-4.99c.52-.18,.8-.75,.62-1.27-.18-.52-.75-.8-1.27-.62l-17.38,6c-.41,.14-.68,.53-.67,.97,0,.43,.3,.81,.71,.94l15.37,4.63H43.08s-.26,.83-.67,2.21H367.08c-.41-1.38-.67-2.21-.67-2.21Z"/><path class="cls-2" d="M92.24,252.54h11.32s.01,0,.01,0v-41.76h-11.33s0,41.77,0,41.77Zm1.5-39.66c0-.64,.52-1.16,1.16-1.16h6.06c.64,0,1.16,.52,1.16,1.16v21.31c0,.64-.52,1.16-1.16,1.16h-6.06c-.64,0-1.16-.52-1.16-1.16v-21.31Z"/><path class="cls-2" d="M79.92,210.77v41.77s11.32,0,11.32,0v-41.77h-11.32Zm9.82,23.42c0,.64-.52,1.16-1.16,1.16h-6.06c-.64,0-1.16-.52-1.16-1.16v-21.31c0-.64,.52-1.16,1.16-1.16h6.06c.64,0,1.16,.52,1.16,1.16v21.31Z"/><path class="cls-2" d="M305.92,210.77v41.77s11.32,0,11.32,0v-41.77h-11.32Zm9.82,23.42c0,.64-.52,1.16-1.16,1.16h-6.06c-.64,0-1.16-.52-1.16-1.16v-21.31c0-.64,.52-1.16,1.16-1.16h6.06c.64,0,1.16,.52,1.16,1.16v21.31Z"/><path class="cls-2" d="M342.75,252.54h11.66s.01,0,.01,0v-41.76h-11.66s-.01,41.76-.01,41.76Zm1.65-39.66c0-.64,.52-1.16,1.16-1.16h6.06c.64,0,1.16,.52,1.16,1.16v21.31c0,.64-.52,1.16-1.16,1.16h-6.06c-.64,0-1.16-.52-1.16-1.16v-21.31Z"/><path class="cls-2" d="M294.07,211.57h-28.5c-.28,0-.5,.22-.5,.5v21.77c0,.28,.22,.5,.5,.5h28.5c.28,0,.5-.22,.5-.5v-21.77c0-.28-.22-.5-.5-.5Zm-2.62,17.55c0,.83-.67,1.5-1.5,1.5h-20.25c-.83,0-1.5-.67-1.5-1.5v-4.38c0-.83,.67-1.5,1.5-1.5h20.25c.83,0,1.5,.67,1.5,1.5v4.38Zm0-7.96c0,.83-.67,1.5-1.5,1.5h-20.25c-.83,0-1.5-.67-1.5-1.5v-4.38c0-.83,.67-1.5,1.5-1.5h20.25c.83,0,1.5,.67,1.5,1.5v4.38Z"/><path class="cls-2" d="M318.25,252.54h11.32s.01,0,.01,0v-41.76h-11.33s0,41.77,0,41.77Zm1.5-39.66c0-.64,.52-1.16,1.16-1.16h6.06c.64,0,1.16,.52,1.16,1.16v21.31c0,.64-.52,1.16-1.16,1.16h-6.06c-.64,0-1.16-.52-1.16-1.16v-21.31Z"/><path class="cls-2" d="M373.41,231.66c0-4.11-4.11-18.42-6.03-24.88H42.11c-1.92,6.46-6.03,20.77-6.03,24.88s4.11,18.42,6.03,24.88H367.38c1.92-6.46,6.03-20.77,6.03-24.88Zm-320.32,.57c0,.64-.52,1.16-1.16,1.16h-10.06c-.64,0-1.16-.52-1.16-1.16l4.01-21.4c0-.54,.51-1.06,1.15-1.06h6.06c.64,0,1.16,.52,1.16,1.16v21.31Zm14.65,20.31c0,.56-.45,1.01-1.01,1.01h-11.65c-.56,0-1.01-.45-1.01-1.01v-41.76c0-.56,.45-1.01,1.01-1.01h11.65c.56,0,1.01,.45,1.01,1.01v41.76Zm36.84,0c0,.56-.45,1.01-1.01,1.01h-23.65c-.56,0-1.01-.45-1.01-1.01v-41.76c0-.56,.45-1.01,1.01-1.01h23.65c.56,0,1.01,.45,1.01,1.01v41.76Zm40.84-18.7c0,.83-.67,1.5-1.5,1.5h-28.5c-.83,0-1.5-.67-1.5-1.5v-21.77c0-.83,.67-1.5,1.5-1.5h28.5c.83,0,1.5,.67,1.5,1.5v21.77Zm34.49,18.7c0,.56-.45,1.01-1.01,1.01h-23.65c-.56,0-1.01-.45-1.01-1.01v-41.76c0-.56,.45-1.01,1.01-1.01h23.65c.56,0,1.01,.45,1.01,1.01v41.76Zm40.58-18.7c0,.83-.67,1.5-1.5,1.5h-28.5c-.83,0-1.5-.67-1.5-1.5v-21.77c0-.83,.67-1.5,1.5-1.5h28.5c.83,0,1.5,.67,1.5,1.5v21.77Zm34.75,18.7c0,.56-.45,1.01-1.01,1.01h-23.65c-.56,0-1.01-.45-1.01-1.01v-41.76c0-.56,.45-1.01,1.01-1.01h23.65c.56,0,1.01,.45,1.01,1.01v41.76Zm40.33-18.7c0,.83-.67,1.5-1.5,1.5h-28.5c-.83,0-1.5-.67-1.5-1.5v-21.77c0-.83,.67-1.5,1.5-1.5h28.5c.83,0,1.5,.67,1.5,1.5v21.77Zm35.01,18.7c0,.56-.45,1.01-1.01,1.01h-23.65c-.56,0-1.01-.45-1.01-1.01v-41.76c0-.56,.45-1.01,1.01-1.01h23.65c.56,0,1.01,.45,1.01,1.01v41.76Zm24.84,0c0,.56-.45,1.01-1.01,1.01h-11.65c-.56,0-1.01-.45-1.01-1.01v-41.76c0-.56,.45-1.01,1.01-1.01h11.65c.56,0,1.01,.45,1.01,1.01v41.76Zm.98-20.31v-21.31c0-.64,.52-1.16,1.16-1.16h6.06c.64,0,1.16,.52,1.16,1.16l3.99,21.21c0,.73-.51,1.25-1.15,1.25h-10.06c-.64,0-1.16-.52-1.16-1.16Z"/><path class="cls-2" d="M242.91,252.54h11.32s.01,0,.01,0v-41.76h-11.33s0,41.77,0,41.77Zm1.5-39.66c0-.64,.52-1.16,1.16-1.16h6.06c.64,0,1.16,.52,1.16,1.16v21.31c0,.64-.52,1.16-1.16,1.16h-6.06c-.64,0-1.16-.52-1.16-1.16v-21.31Z"/><path class="cls-2" d="M570.29,210.77v41.77s11.32,0,11.32,0v-41.77h-11.32Zm9.82,23.42c0,.64-.52,1.16-1.16,1.16h-6.06c-.64,0-1.16-.52-1.16-1.16v-21.31c0-.64,.52-1.16,1.16-1.16h6.06c.64,0,1.16,.52,1.16,1.16v21.31Z"/><path class="cls-2" d="M494.96,210.77v41.77s11.32,0,11.32,0v-41.77h-11.32Zm9.82,23.42c0,.64-.52,1.16-1.16,1.16h-6.06c-.64,0-1.16-.52-1.16-1.16v-21.31c0-.64,.52-1.16,1.16-1.16h6.06c.64,0,1.16,.52,1.16,1.16v21.31Z"/><path class="cls-2" d="M507.28,252.54h11.32s0,0,0,0v-41.76h-11.33s0,41.77,0,41.77Zm1.5-39.66c0-.64,.52-1.16,1.16-1.16h6.06c.64,0,1.16,.52,1.16,1.16v21.31c0,.64-.52,1.16-1.16,1.16h-6.06c-.64,0-1.16-.52-1.16-1.16v-21.31Z"/><path class="cls-2" d="M483.62,211.57h-28.5c-.28,0-.5,.22-.5,.5v21.77c0,.28,.22,.5,.5,.5h28.5c.28,0,.5-.22,.5-.5v-21.77c0-.28-.22-.5-.5-.5Zm-2.62,17.55c0,.83-.67,1.5-1.5,1.5h-20.25c-.83,0-1.5-.67-1.5-1.5v-4.38c0-.83,.67-1.5,1.5-1.5h20.25c.83,0,1.5,.67,1.5,1.5v4.38Zm0-7.96c0,.83-.67,1.5-1.5,1.5h-20.25c-.83,0-1.5-.67-1.5-1.5v-4.38c0-.83,.67-1.5,1.5-1.5h20.25c.83,0,1.5,.67,1.5,1.5v4.38Z"/><path class="cls-2" d="M558.7,211.57h-28.5c-.28,0-.5,.22-.5,.5v21.77c0,.28,.22,.5,.5,.5h28.5c.28,0,.5-.22,.5-.5v-21.77c0-.28-.22-.5-.5-.5Zm-2.62,17.55c0,.83-.67,1.5-1.5,1.5h-20.25c-.83,0-1.5-.67-1.5-1.5v-4.38c0-.83,.67-1.5,1.5-1.5h20.25c.83,0,1.5,.67,1.5,1.5v4.38Zm0-7.96c0,.83-.67,1.5-1.5,1.5h-20.25c-.83,0-1.5-.67-1.5-1.5v-4.38c0-.83,.67-1.5,1.5-1.5h20.25c.83,0,1.5,.67,1.5,1.5v4.38Z"/><path class="cls-2" d="M394.78,252.54h11.66s0,0,0,0v-41.76h-11.66s0,41.76,0,41.76Zm1.64-39.66c0-.64,.52-1.16,1.16-1.16h6.06c.64,0,1.16,.52,1.16,1.16v21.31c0,.64-.52,1.16-1.16,1.16h-6.06c-.64,0-1.16-.52-1.16-1.16v-21.31Z"/><path class="cls-2" d="M382.78,259.74h11.06l1.7,4.36h-16.94v-2.31h-8v2.31h-16.94l1.7-4.36h11.06s.26-.83,.67-2.21H42.41c.41,1.38,.67,2.21,.67,2.21h11.06l3.45,8.83h15.35c0,.12-.02,.25-.02,.38,0,3.59,2.91,6.5,6.5,6.5s6.5-2.91,6.5-6.5c0-.13-.01-.25-.02-.38h1.87c0,.12-.02,.25-.02,.38,0,3.59,2.91,6.5,6.5,6.5s6.5-2.91,6.5-6.5c0-.13-.01-.25-.02-.38h1.87c0,.12-.02,.25-.02,.38,0,3.59,2.91,6.5,6.5,6.5s6.5-2.91,6.5-6.5c0-.13-.01-.25-.02-.38h67.87c0,.12-.02,.25-.02,.38,0,3.59,2.91,6.5,6.5,6.5s6.5-2.91,6.5-6.5c0-.13-.01-.25-.02-.38h1.87c0,.12-.02,.25-.02,.38,0,3.59,2.91,6.5,6.5,6.5s6.5-2.91,6.5-6.5c0-.13-.01-.25-.02-.38h1.87c0,.12-.02,.25-.02,.38,0,3.59,2.91,6.5,6.5,6.5s6.5-2.91,6.5-6.5c0-.13-.01-.25-.02-.38h67.87c0,.12-.02,.25-.02,.38,0,3.59,2.91,6.5,6.5,6.5s6.5-2.91,6.5-6.5c0-.13-.01-.25-.02-.38h1.87c0,.12-.02,.25-.02,.38,0,3.59,2.91,6.5,6.5,6.5s6.5-2.91,6.5-6.5c0-.13-.01-.25-.02-.38h1.87c0,.12-.02,.25-.02,.38,0,3.59,2.91,6.5,6.5,6.5s6.5-2.91,6.5-6.5c0-.13-.01-.25-.02-.38h15.35l1.01-2.59h17.68v2.31h8v-2.31h17.68l1.01,2.59h15.35c0,.12-.02,.25-.02,.38,0,3.59,2.91,6.5,6.5,6.5s6.5-2.91,6.5-6.5c0-.13-.01-.25-.02-.38h1.87c0,.12-.02,.25-.02,.38,0,3.59,2.91,6.5,6.5,6.5s6.5-2.91,6.5-6.5c0-.13-.01-.25-.02-.38h1.87c0,.12-.02,.25-.02,.38,0,3.59,2.91,6.5,6.5,6.5s6.5-2.91,6.5-6.5c0-.13-.01-.25-.02-.38h67.87c0,.12-.02,.25-.02,.38,0,3.59,2.91,6.5,6.5,6.5s6.5-2.91,6.5-6.5c0-.13-.01-.25-.02-.38h1.87c0,.12-.02,.25-.02,.38,0,3.59,2.91,6.5,6.5,6.5s6.5-2.91,6.5-6.5c0-.13-.01-.25-.02-.38h1.87c0,.12-.02,.25-.02,.38,0,3.59,2.91,6.5,6.5,6.5s6.5-2.91,6.5-6.5c0-.13-.01-.25-.02-.38h67.87c0,.12-.02,.25-.02,.38,0,3.59,2.91,6.5,6.5,6.5s6.5-2.91,6.5-6.5c0-.13-.01-.25-.02-.38h1.87c0,.12-.02,.25-.02,.38,0,3.59,2.91,6.5,6.5,6.5s6.5-2.91,6.5-6.5c0-.13-.01-.25-.02-.38h1.87c0,.12-.02,.25-.02,.38,0,3.59,2.91,6.5,6.5,6.5s6.5-2.91,6.5-6.5c0-.13-.01-.25-.02-.38h15.35l3.45-8.83h11.05s.26-.83,.67-2.21H382.12c.41,1.38,.67,2.21,.67,2.21Z"/><path class="cls-2" d="M706.12,203.57h-51.79c.21-.18,.36-.45,.36-.75,0-.55-.45-1-1-1h-8.5l-12.96-3.9,14.45-4.99c.52-.18,.8-.75,.62-1.27-.18-.52-.75-.8-1.27-.62l-17.37,6c-.41,.14-.68,.53-.67,.97,0,.43,.3,.81,.71,.94l15.37,4.63h-183.49c.21-.18,.36-.45,.36-.75,0-.55-.45-1-1-1h-8.5l-12.96-3.9,14.45-4.99c.52-.18,.8-.75,.62-1.27-.18-.52-.75-.8-1.27-.62l-17.37,6c-.41,.14-.68,.53-.67,.97,0,.43,.3,.81,.71,.94l15.37,4.63h-67.52s-.26,.83-.67,2.21h324.67c-.41-1.38-.67-2.21-.67-2.21Z"/><path class="cls-2" d="M431.95,252.54h11.32s0,0,0,0v-41.76h-11.33s0,41.77,0,41.77Zm1.5-39.66c0-.64,.52-1.16,1.16-1.16h6.06c.64,0,1.16,.52,1.16,1.16v21.31c0,.64-.52,1.16-1.16,1.16h-6.06c-.64,0-1.16-.52-1.16-1.16v-21.31Z"/><path class="cls-2" d="M419.63,210.77v41.77s11.32,0,11.32,0v-41.77h-11.32Zm9.82,23.42c0,.64-.52,1.16-1.16,1.16h-6.06c-.64,0-1.16-.52-1.16-1.16v-21.31c0-.64,.52-1.16,1.16-1.16h6.06c.64,0,1.16,.52,1.16,1.16v21.31Z"/><path class="cls-2" d="M645.63,210.77v41.77s11.32,0,11.32,0v-41.77h-11.32Zm9.82,23.42c0,.64-.52,1.16-1.16,1.16h-6.06c-.64,0-1.16-.52-1.16-1.16v-21.31c0-.64,.52-1.16,1.16-1.16h6.06c.64,0,1.16,.52,1.16,1.16v21.31Z"/><path class="cls-2" d="M682.46,252.54h11.66s.01,0,.01,0v-41.76h-11.66s-.01,41.76-.01,41.76Zm1.65-39.66c0-.64,.52-1.16,1.16-1.16h6.06c.64,0,1.16,.52,1.16,1.16v21.31c0,.64-.52,1.16-1.16,1.16h-6.06c-.64,0-1.16-.52-1.16-1.16v-21.31Z"/><path class="cls-2" d="M633.78,211.57h-28.5c-.28,0-.5,.22-.5,.5v21.77c0,.28,.22,.5,.5,.5h28.5c.28,0,.5-.22,.5-.5v-21.77c0-.28-.22-.5-.5-.5Zm-2.62,17.55c0,.83-.67,1.5-1.5,1.5h-20.25c-.83,0-1.5-.67-1.5-1.5v-4.38c0-.83,.67-1.5,1.5-1.5h20.25c.83,0,1.5,.67,1.5,1.5v4.38Zm0-7.96c0,.83-.67,1.5-1.5,1.5h-20.25c-.83,0-1.5-.67-1.5-1.5v-4.38c0-.83,.67-1.5,1.5-1.5h20.25c.83,0,1.5,.67,1.5,1.5v4.38Z"/><path class="cls-2" d="M657.95,252.54h11.32s0,0,0,0v-41.76h-11.33s0,41.77,0,41.77Zm1.5-39.66c0-.64,.52-1.16,1.16-1.16h6.06c.64,0,1.16,.52,1.16,1.16v21.31c0,.64-.52,1.16-1.16,1.16h-6.06c-.64,0-1.16-.52-1.16-1.16v-21.31Z"/><path class="cls-2" d="M707.08,206.78H381.82c-1.92,6.46-6.03,20.77-6.03,24.88s4.11,18.42,6.03,24.88h325.27c1.92-6.46,6.03-20.77,6.03-24.88s-4.11-18.42-6.03-24.88Zm-314.29,25.44c0,.64-.52,1.16-1.16,1.16h-10.06c-.64,0-1.16-.52-1.16-1.16l4.01-21.4c0-.54,.51-1.06,1.15-1.06h6.06c.64,0,1.16,.52,1.16,1.16v21.31Zm14.65,20.31c0,.56-.45,1.01-1.01,1.01h-11.65c-.56,0-1.01-.45-1.01-1.01v-41.76c0-.56,.45-1.01,1.01-1.01h11.65c.56,0,1.01,.45,1.01,1.01v41.76Zm36.84,0c0,.56-.45,1.01-1.01,1.01h-23.65c-.56,0-1.01-.45-1.01-1.01v-41.76c0-.56,.45-1.01,1.01-1.01h23.65c.56,0,1.01,.45,1.01,1.01v41.76Zm40.84-18.7c0,.83-.67,1.5-1.5,1.5h-28.5c-.83,0-1.5-.67-1.5-1.5v-21.77c0-.83,.67-1.5,1.5-1.5h28.5c.83,0,1.5,.67,1.5,1.5v21.77Zm34.49,18.7c0,.56-.45,1.01-1.01,1.01h-23.65c-.56,0-1.01-.45-1.01-1.01v-41.76c0-.56,.45-1.01,1.01-1.01h23.65c.56,0,1.01,.45,1.01,1.01v41.76Zm40.58-18.7c0,.83-.67,1.5-1.5,1.5h-28.5c-.83,0-1.5-.67-1.5-1.5v-21.77c0-.83,.67-1.5,1.5-1.5h28.5c.83,0,1.5,.67,1.5,1.5v21.77Zm34.75,18.7c0,.56-.45,1.01-1.01,1.01h-23.65c-.56,0-1.01-.45-1.01-1.01v-41.76c0-.56,.45-1.01,1.01-1.01h23.65c.56,0,1.01,.45,1.01,1.01v41.76Zm40.33-18.7c0,.83-.67,1.5-1.5,1.5h-28.5c-.83,0-1.5-.67-1.5-1.5v-21.77c0-.83,.67-1.5,1.5-1.5h28.5c.83,0,1.5,.67,1.5,1.5v21.77Zm35.01,18.7c0,.56-.45,1.01-1.01,1.01h-23.65c-.56,0-1.01-.45-1.01-1.01v-41.76c0-.56,.45-1.01,1.01-1.01h23.65c.56,0,1.01,.45,1.01,1.01v41.76Zm24.84,0c0,.56-.45,1.01-1.01,1.01h-11.64c-.56,0-1.01-.45-1.01-1.01v-41.76c0-.56,.45-1.01,1.01-1.01h11.64c.56,0,1.01,.45,1.01,1.01v41.76Zm12.2-19.16h-10.06c-.64,0-1.16-.52-1.16-1.16v-21.31c0-.64,.52-1.16,1.16-1.16h6.06c.64,0,1.16,.52,1.16,1.16l3.99,21.21c0,.73-.51,1.25-1.15,1.25Z"/><path class="cls-2" d="M582.62,252.54h11.32s0,0,0,0v-41.76h-11.33s0,41.77,0,41.77Zm1.5-39.66c0-.64,.52-1.16,1.16-1.16h6.06c.64,0,1.16,.52,1.16,1.16v21.31c0,.64-.52,1.16-1.16,1.16h-6.06c-.64,0-1.16-.52-1.16-1.16v-21.31Z"/></g></g><rect class="cls-2" y="1188.15" width="2212.05" height="2"/><g><rect class="cls-1" x="49.57" y="1306.56" width="16.23" height="9.21"/><path class="cls-1" d="M195.03,1304.88H46.68v12.56H195.03v-12.56Zm-.87,11.7H47.54v-10.83H194.16v10.83Z"/><rect class="cls-1" x="113.07" y="1306.56" width="16.23" height="9.21"/><rect class="cls-1" x="91.9" y="1306.56" width="16.23" height="9.21"/><rect class="cls-1" x="70.73" y="1306.56" width="16.23" height="9.21"/><path class="cls-1" d="M174.58,1333.61c.7,.93,1.15,2.05,1.25,3.27h2.54l-2.05-3.27h-1.74Z"/><rect class="cls-1" x="134.23" y="1306.56" width="16.23" height="9.21"/><path class="cls-1" d="M191.1,1336.88h2.54c.11-1.22,.56-2.34,1.25-3.27h-1.74l-2.05,3.27Z"/><path class="cls-1" d="M21.02,1303.12h7.26c.3,0,.54,.24,.54,.54v8.4c0,.3-.24,.54-.54,.54h-7.26c-.3,0-.54-.24-.54-.54v-8.4c0-.3,.24-.54,.54-.54Z"/><path class="cls-1" d="M46.81,1333.61c.7,.93,1.15,2.05,1.25,3.27h2.54l-2.05-3.27h-1.74Z"/><path class="cls-1" d="M65.87,1336.88c.11-1.22,.56-2.34,1.25-3.27h-1.74l-2.05,3.27h2.54Z"/><rect class="cls-1" x="410.48" y="1306.56" width="16.23" height="9.21"/><rect class="cls-1" x="346.98" y="1306.56" width="16.23" height="9.21"/><rect class="cls-1" x="304.65" y="1306.56" width="16.23" height="9.21"/><rect class="cls-1" x="368.15" y="1306.56" width="16.23" height="9.21"/><rect class="cls-1" x="155.4" y="1306.56" width="16.23" height="9.21"/><path class="cls-1" d="M280.73,1333.61c.7,.93,1.15,2.05,1.25,3.27h2.54l-2.05-3.27h-1.74Z"/><rect class="cls-1" x="389.31" y="1306.56" width="16.23" height="9.21"/><rect class="cls-1" x="325.81" y="1306.56" width="16.23" height="9.21"/><path class="cls-1" d="M254.93,1303.12h7.26c.3,0,.54,.24,.54,.54v8.4c0,.3-.24,.54-.54,.54h-7.26c-.3,0-.54-.24-.54-.54v-8.4c0-.3,.24-.54,.54-.54Z"/><rect class="cls-1" x="176.56" y="1306.56" width="16.23" height="9.21"/><rect class="cls-1" x="283.48" y="1306.56" width="16.23" height="9.21"/><path class="cls-1" d="M447.34,1303.12h7.26c.3,0,.54,.24,.54,.54v8.4c0,.3-.24,.54-.54,.54h-7.26c-.3,0-.54-.24-.54-.54v-8.4c0-.3,.24-.54,.54-.54Z"/><path class="cls-1" d="M428.94,1304.88h-148.35v12.56h148.35v-12.56Zm-.87,11.7h-146.62v-10.83h146.62v10.83Z"/><path class="cls-1" d="M213.43,1303.12h7.26c.3,0,.54,.24,.54,.54v8.4c0,.3-.24,.54-.54,.54h-7.26c-.3,0-.54-.24-.54-.54v-8.4c0-.3,.24-.54,.54-.54Z"/><rect class="cls-1" x="577.77" y="1306.56" width="16.23" height="9.21"/><polygon class="cls-1" points="640.24 1333.61 641.48 1335.58 653.08 1335.58 654.32 1333.61 640.24 1333.61"/><rect class="cls-1" x="620.1" y="1306.56" width="16.23" height="9.21"/><rect class="cls-1" x="641.27" y="1306.56" width="16.23" height="9.21"/><rect class="cls-1" x="598.94" y="1306.56" width="16.23" height="9.21"/><path class="cls-1" d="M653.64,1336.88h2.54c.11-1.22,.56-2.34,1.25-3.27h-1.74l-2.05,3.27Z"/><path class="cls-1" d="M408.5,1333.61c.7,.93,1.15,2.05,1.25,3.27h2.54l-2.05-3.27h-1.74Z"/><path class="cls-1" d="M509.35,1333.61c.7,.93,1.15,2.05,1.25,3.27h2.54l-2.05-3.27h-1.74Z"/><path class="cls-1" d="M299.78,1336.88c.11-1.22,.56-2.34,1.25-3.27h-1.74l-2.05,3.27h2.54Z"/><path class="cls-1" d="M525.87,1336.88h2.54c.11-1.22,.56-2.34,1.25-3.27h-1.74l-2.05,3.27Z"/><path class="cls-1" d="M637.13,1333.61c.7,.93,1.15,2.05,1.25,3.27h2.54l-2.05-3.27h-1.74Z"/><path class="cls-1" d="M425.02,1336.88h2.54c.11-1.22,.56-2.34,1.25-3.27h-1.74l-2.05,3.27Z"/><path class="cls-1" d="M511.38,1317.44h148.35v-12.56h-148.35v12.56Zm.87-11.7h146.62v10.83h-146.62v-10.83Z"/><rect class="cls-1" x="535.44" y="1306.56" width="16.23" height="9.21"/><rect class="cls-1" x="514.27" y="1306.56" width="16.23" height="9.21"/><path class="cls-1" d="M484.28,1303.09h7.26c.3,0,.54,.24,.54,.54v8.4c0,.3-.24,.54-.54,.54h-7.26c-.3,0-.54-.24-.54-.54v-8.4c0-.3,.24-.54,.54-.54Z"/><rect class="cls-1" x="556.6" y="1306.56" width="16.23" height="9.21"/><path class="cls-1" d="M688.09,1308.26h-6.24c-.91,0-1.66,.74-1.66,1.66v18.97c0,.91,.74,1.66,1.66,1.66h6.24c.91,0,1.66-.74,1.66-1.66v-18.97c0-.91-.74-1.66-1.66-1.66Zm.79,20.62c0,.44-.35,.79-.79,.79h-6.24c-.44,0-.79-.35-.79-.79v-18.97c0-.44,.35-.79,.79-.79h6.24c.44,0,.79,.35,.79,.79v18.97Z"/><path class="cls-2" d="M495.11,1332.5c.06,0,.1-.05,.1-.1v-33.21c0-.06-.05-.1-.1-.1h-14.38c-.06,0-.11,.05-.11,.1v33.21c0,.06,.05,.1,.11,.1h14.38Zm-11.36-28.88c0-.3,.24-.54,.54-.54h7.26c.3,0,.54,.24,.54,.54v8.4c0,.3-.24,.54-.54,.54h-7.26c-.3,0-.54-.24-.54-.54v-8.4Z"/><path class="cls-2" d="M681.85,1309.13h6.24c.44,0,.79,.35,.79,.79v18.97c0,.44-.35,.79-.79,.79h-6.24c-.44,0-.79-.35-.79-.79v-18.97c0-.44,.35-.79,.79-.79Z"/><path class="cls-2" d="M658.86,1305.74h-146.62v10.83h146.62v-10.83Zm-128.36,10.02h-16.23v-9.21h16.23v9.21Zm21.17,0h-16.23v-9.21h16.23v9.21Zm21.17,0h-16.23v-9.21h16.23v9.21Zm21.17,0h-16.23v-9.21h16.23v9.21Zm21.17,0h-16.23v-9.21h16.23v9.21Zm21.17,0h-16.23v-9.21h16.23v9.21Zm21.17,0h-16.23v-9.21h16.23v9.21Z"/><path class="cls-2" d="M715.14,1323.12c-2.74-10.81-17.16-26.69-31.54-31.42-2.69-.88-5.37-1.38-7.98-1.38h-198.36c-.3,0-.54,.24-.54,.54v4.18h204.47c.14-.05,.35-.08,.67-.09,.79-.02,7.36,1.45,12.47,4.43,6.6,3.85,12.58,10.5,11.96,10.5h-7.06c-1.21,0-10.89-4.17-11.56-4.17h-6.32c-.42,0-.4-.25-.4-.58v-9.22h-204.22v24.72h3.03v-21.44c0-.53,.44-.97,.97-.97h14.38c.54,0,.97,.44,.97,.97v21.44h136.51c18.55,0,29.48,8.23,32.67,11.04-.64-.3-1.33-.51-2.07-.58-4.35-3.36-14.57-9.59-30.6-9.59h-136.51v2.27h136.51c13.21,0,22.56,4.18,28,7.6-.34,.11-.67,.24-.99,.41-5.09-3.1-13.4-6.71-24.92-7.1v6.98c-.28-.13-.57-.24-.87-.33v-6.66c-.41,0-.81-.02-1.23-.02h-36.08v8.98h-.87v-8.98h-37.31v8.98h-.87v-8.98h-37.31v8.98h6.39l-1.24,1.97h-11.61l-1.24-1.97h6.83v-8.98h-23.22v7.77c0,.54-.44,.97-.97,.97h-14.38c-.54,0-.97-.44-.97-.97v-10.9h-3.03v10.12h-3.74v-.89h-2.67v.89h-3.59v-10.12h-7.59v10.9c0,.54-.44,.97-.97,.97h-14.38c-.54,0-.97-.44-.97-.97v-7.77h-30.34v8.98h13.23l-1.24,1.97h-11.61l-.96-1.52-.28-.45-.02-.03v-8.95h-37.31v8.98h24.01c-.8,1.07-1.29,2.39-1.29,3.83,0,3.53,2.86,6.39,6.39,6.39s6.24-2.73,6.37-6.14h17.77c.13,3.41,2.93,6.14,6.37,6.14s6.39-2.86,6.39-6.39c0-1.44-.48-2.76-1.29-3.83h26.87c.47,0,.84-.38,.84-.85v-.07h3.59v.89h2.67v-.89h3.74v.38c0,.3,.24,.54,.54,.54h21.89c-.8,1.07-1.29,2.39-1.29,3.83,0,3.53,2.86,6.39,6.39,6.39s6.24-2.73,6.37-6.14h17.77c.13,3.41,2.93,6.14,6.37,6.14s6.39-2.86,6.39-6.39c0-1.44-.48-2.76-1.29-3.83h2.02v4.84h14.16v1.61h1.97v-1.7h2.6v2.69h15.06v-2.51h8.81v1.7h39.5v-6.63h2.94c-.8,1.07-1.29,2.39-1.29,3.83,0,3.53,2.86,6.39,6.38,6.39s6.24-2.73,6.37-6.14h17.77c.13,3.41,2.93,6.14,6.37,6.14s6.39-2.86,6.39-6.39c0-1.44-.48-2.76-1.29-3.83h4.93c-.41,.65-.66,1.42-.66,2.24,0,2.33,1.89,4.21,4.21,4.21h27.16c2.33,0,4.21-1.89,4.21-4.21,0-.83-.25-1.59-.66-2.24h1.66c1.81,0,8.24-4.17,6.63-10.49Zm-55.41-5.68h-148.35v-12.56h148.35v12.56Zm-249.98,19.44c-.11-1.22-.56-2.34-1.25-3.27h1.74l2.05,3.27h-2.54Zm17.8,0h-2.54l2.05-3.27h1.74c-.7,.93-1.15,2.05-1.25,3.27Zm83.05,0c-.11-1.22-.56-2.34-1.25-3.27h1.74l2.05,3.27h-2.54Zm17.8,0h-2.54l2.05-3.27h1.74c-.7,.93-1.15,2.05-1.25,3.27Zm109.97,0c-.11-1.22-.56-2.34-1.25-3.27h1.74l2.05,3.27h-2.54Zm3.1-1.3l-1.24-1.97h14.08l-1.24,1.97h-11.61Zm14.71,1.3h-2.54l2.05-3.27h1.74c-.7,.93-1.15,2.05-1.25,3.27Zm33.57-7.99c0,.91-.74,1.66-1.66,1.66h-6.24c-.91,0-1.66-.74-1.66-1.66v-18.97c0-.91,.74-1.66,1.66-1.66h6.24c.91,0,1.66,.74,1.66,1.66v18.97Z"/><path class="cls-2" d="M297.94,1333.58l-.02,.03-.28,.45-.96,1.52h-11.61l-1.24-1.97h13.23v-8.98h-30.34v7.8c0,.54-.44,.97-.97,.97h-14.38c-.54,0-.97-.44-.97-.97v-10.94h-7.59v10.12h-3.66v-.89h-2.67v.89h-3.67v-10.12h-7.59v10.9c0,.54-.44,.97-.97,.97h-14.38c-.54,0-.97-.44-.97-.97v-7.77h-30.34v8.98h13.23l-1.24,1.97h-11.61l-.96-1.52-.28-.45-.02-.03v-8.95h-37.31v8.98h24.01c-.8,1.07-1.29,2.39-1.29,3.83,0,3.53,2.86,6.39,6.39,6.39s6.24-2.73,6.37-6.14h17.77c.13,3.41,2.93,6.14,6.37,6.14s6.39-2.86,6.39-6.39c0-1.44-.48-2.76-1.29-3.83h26.87c.47,0,.84-.38,.84-.85v-.07h3.67v.89h2.67v-.89h3.66v.07c0,.47,.38,.85,.85,.85h26.87c-.8,1.07-1.29,2.39-1.29,3.83,0,3.53,2.86,6.39,6.39,6.39s6.24-2.73,6.37-6.14h17.77c.13,3.41,2.93,6.14,6.37,6.14s6.38-2.86,6.38-6.39c0-1.44-.48-2.76-1.29-3.83h24.01v-8.98h-37.31v8.95Zm-122.1,3.3c-.11-1.22-.56-2.34-1.25-3.27h1.74l2.05,3.27h-2.54Zm17.8,0h-2.54l2.05-3.27h1.74c-.7,.93-1.15,2.05-1.25,3.27Zm88.34,0c-.11-1.22-.56-2.34-1.25-3.27h1.74l2.05,3.27h-2.54Zm19.05-3.27c-.7,.93-1.15,2.05-1.25,3.27h-2.54l2.05-3.27h1.74Z"/><rect class="cls-2" x="336.11" y="1324.63" width="37.31" height="8.98"/><path class="cls-2" d="M251.37,1299.12c-.06,0-.11,.05-.11,.1v33.21c0,.06,.05,.1,.11,.1h14.38c.06,0,.1-.05,.1-.1v-33.21c0-.06-.05-.1-.1-.1h-14.38Zm11.36,12.94c0,.3-.24,.54-.54,.54h-7.26c-.3,0-.54-.24-.54-.54v-8.4c0-.3,.24-.54,.54-.54h7.26c.3,0,.54,.24,.54,.54v8.4Z"/><path class="cls-2" d="M443.78,1299.09c-.06,0-.11,.05-.11,.1v33.21c0,.06,.05,.1,.11,.1h14.38c.06,0,.1-.05,.1-.1v-33.21c0-.06-.05-.1-.1-.1h-14.38Zm11.36,12.98c0,.3-.24,.54-.54,.54h-7.26c-.3,0-.54-.24-.54-.54v-8.4c0-.3,.24-.54,.54-.54h7.26c.3,0,.54,.24,.54,.54v8.4Z"/><rect class="cls-2" x="266.73" y="1321.49" width="176.08" height="2.27"/><path class="cls-2" d="M250.4,1299.22c0-.54,.44-.97,.97-.97h14.38c.54,0,.97,.44,.97,.97v21.4h176.08v-21.44c0-.53,.44-.97,.97-.97h14.38c.54,0,.97,.44,.97,.97v21.44h7.59v-24.72H242.81v24.72h7.59v-21.4Zm30.19,5.66h148.35v12.56h-148.35v-12.56Z"/><path class="cls-2" d="M466.72,1291.11c0-.47-.38-.85-.84-.85H243.66c-.47,0-.85,.38-.85,.85v3.93h223.91v-3.93Z"/><path class="cls-2" d="M281.46,1316.58h146.62v-10.83h-146.62v10.83Zm129.02-10.02h16.23v9.21h-16.23v-9.21Zm-21.16,0h16.23v9.21h-16.23v-9.21Zm-21.17,0h16.23v9.21h-16.23v-9.21Zm-21.17,0h16.23v9.21h-16.23v-9.21Zm-21.17,0h16.23v9.21h-16.23v-9.21Zm-21.17,0h16.23v9.21h-16.23v-9.21Zm-21.17,0h16.23v9.21h-16.23v-9.21Z"/><path class="cls-2" d="M64.02,1333.58l-.02,.03-.28,.45-.95,1.52h-11.61l-1.24-1.97h13.23v-8.98h-30.34v7.8c0,.54-.44,.97-.97,.97h-14.38c-.54,0-.97-.44-.97-.97v-10.94h-7.59v11.27c0,.47,.38,.85,.85,.85h26.87c-.8,1.07-1.29,2.39-1.29,3.83,0,3.53,2.86,6.39,6.39,6.39s6.24-2.73,6.37-6.14h17.77c.13,3.41,2.93,6.14,6.37,6.14s6.38-2.86,6.38-6.39c0-1.44-.48-2.76-1.29-3.83h24.01v-8.98h-37.31v8.95Zm-15.96,3.3c-.11-1.22-.56-2.34-1.25-3.27h1.74l2.05,3.27h-2.54Zm19.05-3.27c-.7,.93-1.15,2.05-1.25,3.27h-2.54l2.05-3.27h1.74Z"/><rect class="cls-2" x="102.2" y="1324.63" width="37.31" height="8.98"/><path class="cls-2" d="M17.46,1299.12c-.06,0-.11,.05-.11,.1v33.21c0,.06,.05,.1,.11,.1h14.38c.06,0,.1-.05,.1-.1v-33.21c0-.06-.05-.1-.1-.1h-14.38Zm11.36,12.94c0,.3-.24,.54-.54,.54h-7.26c-.3,0-.54-.24-.54-.54v-8.4c0-.3,.24-.54,.54-.54h7.26c.3,0,.54,.24,.54,.54v8.4Z"/><path class="cls-2" d="M209.86,1299.09c-.06,0-.11,.05-.11,.1v33.21c0,.06,.05,.1,.11,.1h14.38c.06,0,.1-.05,.1-.1v-33.21c0-.06-.05-.1-.1-.1h-14.38Zm11.36,12.98c0,.3-.24,.54-.54,.54h-7.26c-.3,0-.54-.24-.54-.54v-8.4c0-.3,.24-.54,.54-.54h7.26c.3,0,.54,.24,.54,.54v8.4Z"/><rect class="cls-2" x="32.81" y="1321.49" width="176.08" height="2.27"/><path class="cls-2" d="M16.48,1299.22c0-.54,.44-.97,.97-.97h14.38c.54,0,.97,.44,.97,.97v21.4H208.89v-21.44c0-.53,.44-.97,.97-.97h14.38c.54,0,.97,.44,.97,.97v21.44h7.59v-24.72H8.89v24.72h7.59v-21.4Zm30.19,5.66H195.03v12.56H46.68v-12.56Z"/><path class="cls-2" d="M232.81,1291.11c0-.47-.38-.85-.84-.85H9.74c-.47,0-.85,.38-.85,.85v3.93H232.81v-3.93Z"/><path class="cls-2" d="M47.54,1316.58H194.16v-10.83H47.54v10.83Zm129.02-10.02h16.23v9.21h-16.23v-9.21Zm-21.17,0h16.23v9.21h-16.23v-9.21Zm-21.17,0h16.23v9.21h-16.23v-9.21Zm-21.17,0h16.23v9.21h-16.23v-9.21Zm-21.17,0h16.23v9.21h-16.23v-9.21Zm-21.17,0h16.23v9.21h-16.23v-9.21Zm-21.17,0h16.23v9.21h-16.23v-9.21Z"/></g><g><rect class="cls-2" x="24.93" y="654.93" width="699.33" height="2"/><g><rect class="cls-1" x="191.41" y="602.94" width="8.16" height="6.19"/><rect class="cls-1" x="191.41" y="594.38" width="8.16" height="6.19"/><rect class="cls-1" x="183.41" y="611.51" width="8.16" height="6.19"/><g><g><g><path class="cls-1" d="M97.46,642.18c-.12-.32-.21-.66-.26-1.01h-8.04c.11,1.8,.57,3.5,1.33,5.03l6.97-4.02Z"/><path class="cls-1" d="M104.19,645.23c-.33,.12-.67,.21-1.02,.27v8.04c1.8-.11,3.51-.59,5.04-1.35l-4.02-6.96Z"/><path class="cls-1" d="M101.49,653.55v-8.04c-.35-.06-.7-.15-1.02-.27l-4.02,6.96c1.54,.77,3.24,1.24,5.04,1.35Z"/><path class="cls-1" d="M89.16,639.5h8.04c.06-.34,.15-.67,.27-.99l-6.96-4.02c-.76,1.53-1.24,3.22-1.36,5.01Z"/><path class="cls-1" d="M100.51,635.52c.31-.12,.64-.2,.98-.26v-8.04c-1.79,.11-3.48,.58-5,1.33l4.02,6.97Z"/><path class="cls-1" d="M103.17,627.22v8.04c.34,.06,.66,.14,.98,.26l4.02-6.97c-1.52-.75-3.21-1.22-5-1.33Z"/><path class="cls-1" d="M99.02,644.38c-.27-.22-.51-.47-.74-.74l-6.98,4.03c.97,1.46,2.22,2.72,3.68,3.7l4.03-6.99Z"/><path class="cls-1" d="M98.34,637.07c.22-.26,.46-.5,.72-.71l-4.03-6.98c-1.45,.97-2.71,2.21-3.68,3.66l6.99,4.03Z"/><path class="cls-1" d="M115.5,641.17h-8.04c-.05,.35-.14,.68-.26,1.01l6.97,4.02c.76-1.53,1.22-3.23,1.33-5.03Z"/><path class="cls-1" d="M106.37,643.64c-.22,.27-.47,.52-.74,.74l4.03,6.99c1.46-.98,2.71-2.24,3.68-3.7l-6.98-4.03Z"/><path class="cls-1" d="M105.59,636.35c.26,.21,.5,.45,.72,.71l6.99-4.03c-.97-1.45-2.23-2.69-3.68-3.66l-4.03,6.98Z"/><path class="cls-1" d="M107.17,638.51c.12,.32,.21,.65,.27,.99h8.04c-.12-1.79-.59-3.49-1.36-5.01l-6.96,4.02Z"/><path class="cls-2" d="M102.33,624.51c-8.77,0-15.88,7.11-15.88,15.88s7.11,15.88,15.88,15.88,15.88-7.11,15.88-15.88-7.11-15.88-15.88-15.88Zm.84,10.75v-8.04c1.79,.11,3.48,.58,5,1.33l-4.02,6.97c-.31-.12-.64-.2-.98-.26Zm-1.68,0c-.34,.06-.66,.14-.98,.26l-4.02-6.97c1.53-.75,3.21-1.22,5-1.33v8.04Zm-4.28,4.24h-8.04c.12-1.79,.59-3.48,1.36-5.01l6.96,4.02c-.12,.32-.21,.65-.27,.99Zm0,1.68c.05,.35,.14,.68,.26,1.01l-6.97,4.02c-.76-1.53-1.22-3.23-1.33-5.03h8.04Zm4.29,4.33v8.04c-1.8-.11-3.51-.59-5.04-1.35l4.02-6.96c.33,.12,.67,.21,1.02,.27Zm1.68,0c.35-.06,.7-.15,1.02-.27l4.02,6.96c-1.54,.77-3.24,1.24-5.04,1.35v-8.04Zm4.29-4.33h8.04c-.11,1.8-.57,3.5-1.33,5.03l-6.97-4.02c.12-.32,.21-.66,.26-1.01Zm0-1.68c-.06-.34-.15-.68-.27-.99l6.96-4.02c.76,1.53,1.24,3.22,1.36,5.01h-8.04Zm5.85-6.47l-6.99,4.03c-.22-.26-.46-.5-.72-.71l4.03-6.98c1.45,.97,2.71,2.21,3.68,3.66Zm-18.27-3.66l4.03,6.98c-.26,.21-.5,.45-.72,.71l-6.99-4.03c.97-1.45,2.23-2.69,3.68-3.66Zm-3.72,18.29l6.98-4.03c.22,.27,.46,.52,.74,.74l-4.03,6.99c-1.46-.98-2.71-2.24-3.68-3.7Zm18.35,3.7l-4.03-6.99c.27-.22,.52-.47,.74-.74l6.98,4.03c-.97,1.46-2.22,2.72-3.68,3.7Z"/></g><g><path class="cls-1" d="M180.29,642.18c-.12-.32-.2-.66-.26-1.01h-8.04c.11,1.8,.57,3.5,1.33,5.03l6.97-4.02Z"/><path class="cls-1" d="M187.02,645.23c-.33,.12-.67,.21-1.02,.27v8.04c1.8-.11,3.51-.59,5.04-1.35l-4.02-6.96Z"/><path class="cls-1" d="M184.32,653.55v-8.04c-.35-.06-.7-.15-1.02-.27l-4.02,6.96c1.54,.77,3.24,1.24,5.04,1.35Z"/><path class="cls-1" d="M172,639.5h8.04c.06-.34,.15-.67,.27-.99l-6.96-4.02c-.76,1.53-1.24,3.22-1.36,5.01Z"/><path class="cls-1" d="M183.35,635.52c.31-.12,.64-.2,.98-.26v-8.04c-1.79,.11-3.48,.58-5,1.33l4.02,6.97Z"/><path class="cls-1" d="M186,627.22v8.04c.34,.06,.66,.14,.98,.26l4.02-6.97c-1.52-.75-3.21-1.22-5-1.33Z"/><path class="cls-1" d="M181.86,644.38c-.27-.22-.52-.47-.74-.74l-6.98,4.03c.97,1.46,2.22,2.72,3.68,3.7l4.03-6.99Z"/><path class="cls-1" d="M181.17,637.07c.22-.26,.46-.5,.72-.71l-4.03-6.98c-1.45,.97-2.71,2.21-3.68,3.66l6.99,4.03Z"/><path class="cls-1" d="M198.33,641.17h-8.04c-.05,.35-.14,.68-.26,1.01l6.97,4.02c.76-1.53,1.22-3.23,1.33-5.03Z"/><path class="cls-1" d="M189.2,643.64c-.22,.27-.46,.52-.74,.74l4.03,6.99c1.46-.98,2.71-2.24,3.68-3.7l-6.98-4.03Z"/><path class="cls-1" d="M188.43,636.35c.26,.21,.5,.45,.72,.71l6.99-4.03c-.97-1.45-2.22-2.69-3.68-3.66l-4.03,6.98Z"/><path class="cls-1" d="M190.01,638.51c.12,.32,.21,.65,.27,.99h8.04c-.12-1.79-.59-3.49-1.36-5.01l-6.96,4.02Z"/><path class="cls-2" d="M185.16,624.51c-8.77,0-15.88,7.11-15.88,15.88s7.11,15.88,15.88,15.88,15.88-7.11,15.88-15.88-7.11-15.88-15.88-15.88Zm.84,10.75v-8.04c1.79,.11,3.48,.58,5,1.33l-4.02,6.97c-.31-.12-.64-.2-.98-.26Zm-1.68,0c-.34,.06-.66,.14-.98,.26l-4.02-6.97c1.52-.75,3.21-1.22,5-1.33v8.04Zm-4.28,4.24h-8.04c.12-1.79,.59-3.48,1.36-5.01l6.96,4.02c-.12,.32-.21,.65-.27,.99Zm0,1.68c.05,.35,.14,.68,.26,1.01l-6.97,4.02c-.76-1.53-1.22-3.23-1.33-5.03h8.04Zm4.29,4.33v8.04c-1.8-.11-3.51-.59-5.04-1.35l4.02-6.96c.33,.12,.67,.21,1.02,.27Zm1.68,0c.35-.06,.7-.15,1.02-.27l4.02,6.96c-1.54,.77-3.24,1.24-5.04,1.35v-8.04Zm4.29-4.33h8.04c-.11,1.8-.57,3.5-1.33,5.03l-6.97-4.02c.12-.32,.21-.66,.26-1.01Zm0-1.68c-.06-.34-.15-.68-.27-.99l6.96-4.02c.76,1.53,1.24,3.22,1.36,5.01h-8.04Zm5.85-6.47l-6.99,4.03c-.22-.26-.46-.5-.72-.71l4.03-6.98c1.45,.97,2.71,2.21,3.68,3.66Zm-18.27-3.66l4.03,6.98c-.26,.21-.5,.45-.72,.71l-6.99-4.03c.97-1.45,2.22-2.69,3.68-3.66Zm-3.72,18.29l6.98-4.03c.22,.27,.46,.52,.74,.74l-4.03,6.99c-1.46-.98-2.71-2.24-3.68-3.7Zm18.35,3.7l-4.03-6.99c.27-.22,.52-.47,.74-.74l6.98,4.03c-.97,1.46-2.22,2.72-3.68,3.7Z"/></g></g><rect class="cls-1" x="89.91" y="602.94" width="8.16" height="6.19"/><rect class="cls-1" x="89.91" y="594.38" width="8.16" height="6.19"/><rect class="cls-1" x="89.91" y="611.51" width="8.16" height="6.19"/><rect class="cls-1" x="92.39" y="605.27" width="11.76" height="4.79"/><rect class="cls-1" x="92.39" y="598.48" width="11.76" height="4.79"/><rect class="cls-1" x="92.39" y="591.68" width="11.76" height="4.79"/><rect class="cls-1" x="183.34" y="605.27" width="11.76" height="4.79"/><rect class="cls-1" x="183.34" y="598.48" width="11.76" height="4.79"/><rect class="cls-1" x="183.34" y="591.68" width="11.76" height="4.79"/><g><rect class="cls-2" x="183.34" y="591.68" width="11.76" height="4.79"/><rect class="cls-2" x="92.39" y="579.35" width="11.76" height="10.33"/><rect class="cls-2" x="183.34" y="579.35" width="11.76" height="10.33"/><rect class="cls-2" x="183.34" y="605.27" width="11.76" height="4.79"/><rect class="cls-2" x="183.34" y="598.48" width="11.76" height="4.79"/><polygon class="cls-2" points="203.42 579.35 198.32 579.35 197.77 579.35 197.77 589.68 197.77 591.68 197.77 596.48 197.77 598.48 197.77 603.27 197.77 605.27 197.77 610.06 197.77 612.06 197.77 618.52 195.1 618.52 195.1 612.06 183.34 612.06 183.34 618.52 180.66 618.52 180.66 579.35 106.83 579.35 106.83 589.68 106.83 591.68 106.83 596.48 106.83 598.48 106.83 603.27 106.83 605.27 106.83 610.06 106.83 612.06 106.83 618.52 104.15 618.52 104.15 612.06 92.39 612.06 92.39 618.52 89.72 618.52 89.72 579.35 89.16 579.35 78.42 579.35 76.31 579.35 76.31 582.68 80.68 582.68 80.68 631.01 206.81 631.01 206.81 582.68 211.18 582.68 211.18 579.35 203.42 579.35"/><rect class="cls-2" x="92.39" y="605.27" width="11.76" height="4.79"/><rect class="cls-2" x="92.39" y="598.48" width="11.76" height="4.79"/><rect class="cls-2" x="92.39" y="591.68" width="11.76" height="4.79"/></g></g><g><g><g><path class="cls-1" d="M388.34,642.18c-.12-.32-.21-.66-.26-1.01h-8.04c.11,1.8,.57,3.5,1.33,5.03l6.97-4.02Z"/><path class="cls-1" d="M395.07,645.23c-.33,.12-.67,.21-1.02,.27v8.04c1.8-.11,3.51-.59,5.04-1.35l-4.02-6.96Z"/><path class="cls-1" d="M392.38,653.55v-8.04c-.36-.06-.7-.15-1.02-.27l-4.02,6.96c1.54,.77,3.24,1.24,5.04,1.35Z"/><path class="cls-1" d="M380.05,639.5h8.04c.06-.34,.15-.67,.27-.99l-6.96-4.02c-.76,1.53-1.24,3.22-1.36,5.01Z"/><path class="cls-1" d="M391.4,635.52c.31-.12,.64-.2,.98-.26v-8.04c-1.79,.11-3.48,.58-5,1.33l4.02,6.97Z"/><path class="cls-1" d="M394.05,627.22v8.04c.34,.06,.66,.14,.98,.26l4.02-6.97c-1.53-.75-3.21-1.22-5-1.33Z"/><path class="cls-1" d="M389.91,644.38c-.27-.22-.52-.47-.74-.74l-6.98,4.03c.97,1.46,2.22,2.72,3.68,3.7l4.03-6.99Z"/><path class="cls-1" d="M389.23,637.07c.22-.26,.46-.5,.72-.71l-4.03-6.98c-1.45,.97-2.71,2.21-3.68,3.66l6.99,4.03Z"/><path class="cls-1" d="M406.38,641.17h-8.04c-.05,.35-.14,.68-.26,1.01l6.97,4.02c.76-1.53,1.22-3.23,1.33-5.03Z"/><path class="cls-1" d="M397.25,643.64c-.22,.27-.46,.52-.74,.74l4.03,6.99c1.46-.98,2.71-2.24,3.68-3.7l-6.98-4.03Z"/><path class="cls-1" d="M396.48,636.35c.26,.21,.5,.45,.72,.71l6.99-4.03c-.97-1.45-2.23-2.69-3.68-3.66l-4.03,6.98Z"/><path class="cls-1" d="M398.06,638.51c.12,.32,.21,.65,.27,.99h8.04c-.12-1.79-.59-3.49-1.36-5.01l-6.96,4.02Z"/><path class="cls-2" d="M393.21,624.51c-8.77,0-15.87,7.11-15.87,15.88s7.11,15.88,15.87,15.88,15.87-7.11,15.87-15.88-7.11-15.88-15.87-15.88Zm.84,10.75v-8.04c1.79,.11,3.47,.58,5,1.33l-4.02,6.97c-.31-.12-.64-.2-.98-.26Zm-1.68,0c-.34,.06-.66,.14-.98,.26l-4.02-6.97c1.53-.75,3.21-1.22,5-1.33v8.04Zm-4.28,4.24h-8.04c.12-1.79,.59-3.48,1.36-5.01l6.96,4.02c-.12,.32-.21,.65-.27,.99Zm0,1.68c.05,.35,.14,.68,.26,1.01l-6.97,4.02c-.76-1.53-1.22-3.23-1.33-5.03h8.04Zm4.29,4.33v8.04c-1.8-.11-3.51-.59-5.04-1.35l4.02-6.96c.33,.12,.67,.21,1.02,.27Zm1.68,0c.35-.06,.7-.15,1.02-.27l4.02,6.96c-1.54,.77-3.24,1.24-5.04,1.35v-8.04Zm4.29-4.33h8.04c-.11,1.8-.57,3.5-1.33,5.03l-6.97-4.02c.12-.32,.21-.66,.26-1.01Zm0-1.68c-.06-.34-.15-.68-.27-.99l6.96-4.02c.76,1.53,1.24,3.22,1.36,5.01h-8.04Zm5.86-6.47l-6.99,4.03c-.22-.26-.46-.5-.72-.71l4.03-6.98c1.45,.97,2.71,2.21,3.68,3.66Zm-18.27-3.66l4.03,6.98c-.26,.21-.5,.45-.72,.71l-6.99-4.03c.97-1.45,2.22-2.69,3.68-3.66Zm-3.72,18.29l6.98-4.03c.22,.27,.46,.52,.74,.74l-4.03,6.99c-1.46-.98-2.71-2.24-3.68-3.7Zm18.35,3.7l-4.03-6.99c.27-.22,.52-.47,.74-.74l6.98,4.03c-.97,1.46-2.22,2.72-3.68,3.7Z"/></g><g><path class="cls-1" d="M471.18,642.18c-.12-.32-.21-.66-.26-1.01h-8.04c.11,1.8,.57,3.5,1.33,5.03l6.97-4.02Z"/><path class="cls-1" d="M477.91,645.23c-.33,.12-.67,.21-1.02,.27v8.04c1.8-.11,3.51-.59,5.04-1.35l-4.02-6.96Z"/><path class="cls-1" d="M475.21,653.55v-8.04c-.36-.06-.7-.15-1.02-.27l-4.02,6.96c1.54,.77,3.24,1.24,5.04,1.35Z"/><path class="cls-1" d="M462.88,639.5h8.04c.06-.34,.15-.67,.27-.99l-6.96-4.02c-.76,1.53-1.24,3.22-1.36,5.01Z"/><path class="cls-1" d="M474.23,635.52c.31-.12,.64-.2,.98-.26v-8.04c-1.79,.11-3.48,.58-5,1.33l4.02,6.97Z"/><path class="cls-1" d="M476.89,627.22v8.04c.34,.06,.66,.14,.98,.26l4.02-6.97c-1.53-.75-3.21-1.22-5-1.33Z"/><path class="cls-1" d="M472.75,644.38c-.27-.22-.52-.47-.74-.74l-6.98,4.03c.97,1.46,2.22,2.72,3.68,3.7l4.03-6.99Z"/><path class="cls-1" d="M472.06,637.07c.22-.26,.46-.5,.72-.71l-4.03-6.98c-1.45,.97-2.71,2.21-3.68,3.66l6.99,4.03Z"/><path class="cls-1" d="M489.22,641.17h-8.04c-.05,.35-.14,.68-.26,1.01l6.97,4.02c.76-1.53,1.22-3.23,1.33-5.03Z"/><path class="cls-1" d="M480.09,643.64c-.22,.27-.46,.52-.74,.74l4.03,6.99c1.46-.98,2.71-2.24,3.68-3.7l-6.98-4.03Z"/><path class="cls-1" d="M479.31,636.35c.26,.21,.5,.45,.72,.71l6.99-4.03c-.97-1.45-2.22-2.69-3.68-3.66l-4.03,6.98Z"/><path class="cls-1" d="M480.89,638.51c.12,.32,.21,.65,.27,.99h8.04c-.12-1.79-.59-3.49-1.36-5.01l-6.96,4.02Z"/><path class="cls-2" d="M476.05,624.51c-8.77,0-15.87,7.11-15.87,15.88s7.11,15.88,15.87,15.88,15.87-7.11,15.87-15.88-7.11-15.88-15.87-15.88Zm.84,10.75v-8.04c1.79,.11,3.47,.58,5,1.33l-4.02,6.97c-.31-.12-.64-.2-.98-.26Zm-1.68,0c-.34,.06-.66,.14-.98,.26l-4.02-6.97c1.53-.75,3.21-1.22,5-1.33v8.04Zm-4.28,4.24h-8.04c.12-1.79,.59-3.48,1.36-5.01l6.96,4.02c-.12,.32-.21,.65-.27,.99Zm0,1.68c.05,.35,.14,.68,.26,1.01l-6.97,4.02c-.76-1.53-1.22-3.23-1.33-5.03h8.04Zm4.29,4.33v8.04c-1.8-.11-3.51-.59-5.04-1.35l4.02-6.96c.33,.12,.67,.21,1.02,.27Zm1.68,0c.35-.06,.7-.15,1.02-.27l4.02,6.96c-1.54,.77-3.24,1.24-5.04,1.35v-8.04Zm4.29-4.33h8.04c-.11,1.8-.57,3.5-1.33,5.03l-6.97-4.02c.12-.32,.21-.66,.26-1.01Zm0-1.68c-.06-.34-.15-.68-.27-.99l6.96-4.02c.76,1.53,1.24,3.22,1.36,5.01h-8.04Zm5.85-6.47l-6.99,4.03c-.22-.26-.46-.5-.72-.71l4.03-6.98c1.45,.97,2.71,2.21,3.68,3.66Zm-18.27-3.66l4.03,6.98c-.26,.21-.5,.45-.72,.71l-6.99-4.03c.97-1.45,2.22-2.69,3.68-3.66Zm-3.72,18.29l6.98-4.03c.22,.27,.46,.52,.74,.74l-4.03,6.99c-1.46-.98-2.71-2.24-3.68-3.7Zm18.35,3.7l-4.03-6.99c.27-.22,.52-.47,.74-.74l6.98,4.03c-.97,1.46-2.22,2.72-3.68,3.7Z"/></g></g><rect class="cls-1" x="471" y="605.27" width="11.76" height="4.79"/><rect class="cls-1" x="471" y="598.48" width="11.76" height="4.79"/><rect class="cls-1" x="471" y="591.68" width="11.76" height="4.79"/><g><rect class="cls-2" x="471" y="598.48" width="11.76" height="4.79"/><path class="cls-2" d="M492.07,578.35c-.12-.21-.23-.42-.38-.61-.2-.27-.43-.5-.67-.71-.08-.99-.43-1.97-1.08-2.82-.96-1.26-2.37-1.95-3.84-2.07-1.69-1.96-4.51-2.41-6.72-1.14-1.83-1.07-4.19-1-5.98,.37-.1,.08-.18,.18-.28,.26-1.37-1.22-3.24-1.65-4.97-1.18-1.16-1.29-2.81-1.91-4.45-1.77-1.23-.07-2.49,.27-3.55,1.08-.36,.28-.66,.6-.93,.94-1.23-.51-2.62-.55-3.9-.08-.18-.63-.46-1.23-.88-1.78-1.32-1.73-3.49-2.42-5.48-1.96-1.68-2.06-4.57-2.55-6.83-1.25-1.81-1.05-4.14-.99-5.91,.33-.13-.88-.45-1.74-1.03-2.5-1.81-2.36-5.18-2.8-7.54-1-.2,.16-.37,.34-.54,.51-1.87-1.91-4.9-2.18-7.08-.51-.36,.28-.66,.6-.93,.94-.78,.16-1.53,.47-2.2,.98-.2,.15-.36,.32-.53,.49-1.87-1.92-4.92-2.21-7.1-.54-.4,.31-.72,.67-1.01,1.06-1.75-.79-3.86-.65-5.49,.6-.15,.12-.28,.26-.41,.39-1.88-1.79-4.83-2.02-6.96-.39-1.26,.97-1.96,2.39-2.07,3.86-.93-.77-2.11-1.25-3.41-1.25-2.97,0-5.37,2.41-5.37,5.38,0,.65,.13,1.27,.35,1.85-.43-.11-.88-.19-1.35-.19-1.99,0-3.71,1.1-4.63,2.72h113.15Z"/><rect class="cls-2" x="471" y="605.27" width="11.76" height="4.79"/><polygon class="cls-2" points="500.17 579.35 500.09 579.35 492.51 579.35 485.44 579.35 485.44 589.68 485.44 591.68 485.44 596.48 485.44 598.48 485.44 603.27 485.44 605.27 485.44 610.06 485.44 612.06 485.44 618.52 482.77 618.52 482.77 612.06 471 612.06 471 618.52 468.33 618.52 468.33 579.35 378.46 579.35 375.59 579.35 370.42 579.35 367.2 579.35 367.2 582.68 371.57 582.68 371.57 631.01 497.69 631.01 497.69 582.68 502.06 582.68 502.06 579.35 500.17 579.35"/><rect class="cls-2" x="471" y="579.35" width="11.76" height="10.33"/><rect class="cls-2" x="471" y="591.68" width="11.76" height="4.79"/></g></g><g><g><g><path class="cls-1" d="M243.46,642.18c-.12-.32-.21-.66-.26-1.01h-8.04c.11,1.8,.57,3.5,1.33,5.03l6.97-4.02Z"/><path class="cls-1" d="M250.19,645.23c-.33,.12-.67,.21-1.02,.27v8.04c1.8-.11,3.51-.59,5.04-1.35l-4.02-6.96Z"/><path class="cls-1" d="M247.49,653.55v-8.04c-.35-.06-.7-.15-1.02-.27l-4.02,6.96c1.54,.77,3.24,1.24,5.04,1.35Z"/><path class="cls-1" d="M235.16,639.5h8.04c.06-.34,.15-.67,.27-.99l-6.96-4.02c-.76,1.53-1.24,3.22-1.36,5.01Z"/><path class="cls-1" d="M246.51,635.52c.31-.12,.64-.2,.98-.26v-8.04c-1.79,.11-3.48,.58-5,1.33l4.02,6.97Z"/><path class="cls-1" d="M249.17,627.22v8.04c.34,.06,.66,.14,.98,.26l4.02-6.97c-1.52-.75-3.21-1.22-5-1.33Z"/><path class="cls-1" d="M245.02,644.38c-.27-.22-.51-.47-.74-.74l-6.98,4.03c.97,1.46,2.22,2.72,3.68,3.7l4.03-6.99Z"/><path class="cls-1" d="M244.34,637.07c.22-.26,.46-.5,.72-.71l-4.03-6.98c-1.45,.97-2.71,2.21-3.68,3.66l6.99,4.03Z"/><path class="cls-1" d="M261.5,641.17h-8.04c-.05,.35-.14,.68-.26,1.01l6.97,4.02c.76-1.53,1.22-3.23,1.33-5.03Z"/><path class="cls-1" d="M252.37,643.64c-.22,.27-.47,.52-.74,.74l4.03,6.99c1.46-.98,2.71-2.24,3.68-3.7l-6.98-4.03Z"/><path class="cls-1" d="M251.59,636.35c.26,.21,.5,.45,.72,.71l6.99-4.03c-.97-1.45-2.23-2.69-3.68-3.66l-4.03,6.98Z"/><path class="cls-1" d="M253.17,638.51c.12,.32,.21,.65,.27,.99h8.04c-.12-1.79-.59-3.49-1.36-5.01l-6.96,4.02Z"/><path class="cls-2" d="M248.33,624.51c-8.77,0-15.88,7.11-15.88,15.88s7.11,15.88,15.88,15.88,15.88-7.11,15.88-15.88-7.11-15.88-15.88-15.88Zm.84,10.75v-8.04c1.79,.11,3.48,.58,5,1.33l-4.02,6.97c-.31-.12-.64-.2-.98-.26Zm-1.68,0c-.34,.06-.66,.14-.98,.26l-4.02-6.97c1.53-.75,3.21-1.22,5-1.33v8.04Zm-4.28,4.24h-8.04c.12-1.79,.59-3.48,1.36-5.01l6.96,4.02c-.12,.32-.21,.65-.27,.99Zm0,1.68c.05,.35,.14,.68,.26,1.01l-6.97,4.02c-.76-1.53-1.22-3.23-1.33-5.03h8.04Zm4.29,4.33v8.04c-1.8-.11-3.51-.59-5.04-1.35l4.02-6.96c.33,.12,.67,.21,1.02,.27Zm1.68,0c.35-.06,.7-.15,1.02-.27l4.02,6.96c-1.54,.77-3.24,1.24-5.04,1.35v-8.04Zm4.29-4.33h8.04c-.11,1.8-.57,3.5-1.33,5.03l-6.97-4.02c.12-.32,.21-.66,.26-1.01Zm0-1.68c-.06-.34-.15-.68-.27-.99l6.96-4.02c.76,1.53,1.24,3.22,1.36,5.01h-8.04Zm5.85-6.47l-6.99,4.03c-.22-.26-.46-.5-.72-.71l4.03-6.98c1.45,.97,2.71,2.21,3.68,3.66Zm-18.27-3.66l4.03,6.98c-.26,.21-.5,.45-.72,.71l-6.99-4.03c.97-1.45,2.23-2.69,3.68-3.66Zm-3.72,18.29l6.98-4.03c.22,.27,.46,.52,.74,.74l-4.03,6.99c-1.46-.98-2.71-2.24-3.68-3.7Zm18.35,3.7l-4.03-6.99c.27-.22,.52-.47,.74-.74l6.98,4.03c-.97,1.46-2.22,2.72-3.68,3.7Z"/></g><g><path class="cls-1" d="M326.29,642.18c-.12-.32-.2-.66-.26-1.01h-8.04c.11,1.8,.57,3.5,1.33,5.03l6.97-4.02Z"/><path class="cls-1" d="M333.02,645.23c-.33,.12-.67,.21-1.02,.27v8.04c1.8-.11,3.51-.59,5.04-1.35l-4.02-6.96Z"/><path class="cls-1" d="M330.32,653.55v-8.04c-.35-.06-.7-.15-1.02-.27l-4.02,6.96c1.54,.77,3.24,1.24,5.04,1.35Z"/><path class="cls-1" d="M318,639.5h8.04c.06-.34,.15-.67,.27-.99l-6.96-4.02c-.76,1.53-1.24,3.22-1.36,5.01Z"/><path class="cls-1" d="M329.35,635.52c.31-.12,.64-.2,.98-.26v-8.04c-1.79,.11-3.48,.58-5,1.33l4.02,6.97Z"/><path class="cls-1" d="M332,627.22v8.04c.34,.06,.66,.14,.98,.26l4.02-6.97c-1.52-.75-3.21-1.22-5-1.33Z"/><path class="cls-1" d="M327.86,644.38c-.27-.22-.52-.47-.74-.74l-6.98,4.03c.97,1.46,2.22,2.72,3.68,3.7l4.03-6.99Z"/><path class="cls-1" d="M327.17,637.07c.22-.26,.46-.5,.72-.71l-4.03-6.98c-1.45,.97-2.71,2.21-3.68,3.66l6.99,4.03Z"/><path class="cls-1" d="M344.33,641.17h-8.04c-.05,.35-.14,.68-.26,1.01l6.97,4.02c.76-1.53,1.22-3.23,1.33-5.03Z"/><path class="cls-1" d="M335.2,643.64c-.22,.27-.46,.52-.74,.74l4.03,6.99c1.46-.98,2.71-2.24,3.68-3.7l-6.98-4.03Z"/><path class="cls-1" d="M334.43,636.35c.26,.21,.5,.45,.72,.71l6.99-4.03c-.97-1.45-2.22-2.69-3.68-3.66l-4.03,6.98Z"/><path class="cls-1" d="M336.01,638.51c.12,.32,.21,.65,.27,.99h8.04c-.12-1.79-.59-3.49-1.36-5.01l-6.96,4.02Z"/><path class="cls-2" d="M331.16,624.51c-8.77,0-15.88,7.11-15.88,15.88s7.11,15.88,15.88,15.88,15.88-7.11,15.88-15.88-7.11-15.88-15.88-15.88Zm.84,10.75v-8.04c1.79,.11,3.48,.58,5,1.33l-4.02,6.97c-.31-.12-.64-.2-.98-.26Zm-1.68,0c-.34,.06-.66,.14-.98,.26l-4.02-6.97c1.52-.75,3.21-1.22,5-1.33v8.04Zm-4.28,4.24h-8.04c.12-1.79,.59-3.48,1.36-5.01l6.96,4.02c-.12,.32-.21,.65-.27,.99Zm0,1.68c.05,.35,.14,.68,.26,1.01l-6.97,4.02c-.76-1.53-1.22-3.23-1.33-5.03h8.04Zm4.29,4.33v8.04c-1.8-.11-3.51-.59-5.04-1.35l4.02-6.96c.33,.12,.67,.21,1.02,.27Zm1.68,0c.35-.06,.7-.15,1.02-.27l4.02,6.96c-1.54,.77-3.24,1.24-5.04,1.35v-8.04Zm4.29-4.33h8.04c-.11,1.8-.57,3.5-1.33,5.03l-6.97-4.02c.12-.32,.21-.66,.26-1.01Zm0-1.68c-.06-.34-.15-.68-.27-.99l6.96-4.02c.76,1.53,1.24,3.22,1.36,5.01h-8.04Zm5.85-6.47l-6.99,4.03c-.22-.26-.46-.5-.72-.71l4.03-6.98c1.45,.97,2.71,2.21,3.68,3.66Zm-18.27-3.66l4.03,6.98c-.26,.21-.5,.45-.72,.71l-6.99-4.03c.97-1.45,2.22-2.69,3.68-3.66Zm-3.72,18.29l6.98-4.03c.22,.27,.46,.52,.74,.74l-4.03,6.99c-1.46-.98-2.71-2.24-3.68-3.7Zm18.35,3.7l-4.03-6.99c.27-.22,.52-.47,.74-.74l6.98,4.03c-.97,1.46-2.22,2.72-3.68,3.7Z"/></g></g><g><rect class="cls-2" x="235.16" y="574.02" width="109.16" height="4.33"/><polygon class="cls-2" points="350.59 579.35 344.32 579.35 235.16 579.35 232.45 579.35 222.31 579.35 222.31 582.68 226.68 582.68 226.68 631.01 352.81 631.01 352.81 582.68 357.18 582.68 357.18 579.35 350.59 579.35"/></g></g><g><g><path class="cls-1" d="M536.79,642.18c-.12-.32-.21-.66-.26-1.01h-8.04c.11,1.8,.57,3.5,1.33,5.03l6.97-4.02Z"/><path class="cls-1" d="M543.52,645.23c-.33,.12-.67,.21-1.02,.27v8.04c1.8-.11,3.51-.59,5.04-1.35l-4.02-6.96Z"/><path class="cls-1" d="M540.82,653.55v-8.04c-.36-.06-.7-.15-1.02-.27l-4.02,6.96c1.54,.77,3.24,1.24,5.04,1.35Z"/><path class="cls-1" d="M528.5,639.5h8.04c.06-.34,.15-.67,.27-.99l-6.96-4.02c-.76,1.53-1.24,3.22-1.36,5.01Z"/><path class="cls-1" d="M539.84,635.52c.31-.12,.64-.2,.98-.26v-8.04c-1.79,.11-3.48,.58-5,1.33l4.02,6.97Z"/><path class="cls-1" d="M542.5,627.22v8.04c.34,.06,.66,.14,.98,.26l4.02-6.97c-1.53-.75-3.21-1.22-5-1.33Z"/><path class="cls-1" d="M538.36,644.38c-.27-.22-.52-.47-.74-.74l-6.98,4.03c.97,1.46,2.22,2.72,3.68,3.7l4.03-6.99Z"/><path class="cls-1" d="M537.67,637.07c.22-.26,.46-.5,.72-.71l-4.03-6.98c-1.45,.97-2.71,2.21-3.68,3.66l6.99,4.03Z"/><path class="cls-1" d="M554.83,641.17h-8.04c-.05,.35-.14,.68-.26,1.01l6.97,4.02c.76-1.53,1.22-3.23,1.33-5.03Z"/><path class="cls-1" d="M545.7,643.64c-.22,.27-.46,.52-.74,.74l4.03,6.99c1.46-.98,2.71-2.24,3.68-3.7l-6.98-4.03Z"/><path class="cls-1" d="M544.93,636.35c.26,.21,.5,.45,.72,.71l6.99-4.03c-.97-1.45-2.23-2.69-3.68-3.66l-4.03,6.98Z"/><path class="cls-1" d="M546.51,638.51c.12,.32,.21,.65,.27,.99h8.04c-.12-1.79-.59-3.49-1.36-5.01l-6.96,4.02Z"/><path class="cls-2" d="M541.66,624.51c-8.77,0-15.87,7.11-15.87,15.88s7.11,15.88,15.87,15.88,15.87-7.11,15.87-15.88-7.11-15.88-15.87-15.88Zm.84,10.75v-8.04c1.79,.11,3.47,.58,5,1.33l-4.02,6.97c-.31-.12-.64-.2-.98-.26Zm-1.68,0c-.34,.06-.66,.14-.98,.26l-4.02-6.97c1.53-.75,3.21-1.22,5-1.33v8.04Zm-4.28,4.24h-8.04c.12-1.79,.59-3.48,1.36-5.01l6.96,4.02c-.12,.32-.21,.65-.27,.99Zm0,1.68c.05,.35,.14,.68,.26,1.01l-6.97,4.02c-.76-1.53-1.22-3.23-1.33-5.03h8.04Zm4.29,4.33v8.04c-1.8-.11-3.51-.59-5.04-1.35l4.02-6.96c.33,.12,.67,.21,1.02,.27Zm1.68,0c.35-.06,.7-.15,1.02-.27l4.02,6.96c-1.54,.77-3.24,1.24-5.04,1.35v-8.04Zm4.29-4.33h8.04c-.11,1.8-.57,3.5-1.33,5.03l-6.97-4.02c.12-.32,.21-.66,.26-1.01Zm0-1.68c-.06-.34-.15-.68-.27-.99l6.96-4.02c.76,1.53,1.24,3.22,1.36,5.01h-8.04Zm5.86-6.47l-6.99,4.03c-.22-.26-.46-.5-.72-.71l4.03-6.98c1.45,.97,2.71,2.21,3.68,3.66Zm-18.27-3.66l4.03,6.98c-.26,.21-.5,.45-.72,.71l-6.99-4.03c.97-1.45,2.22-2.69,3.68-3.66Zm-3.72,18.29l6.98-4.03c.22,.27,.46,.52,.74,.74l-4.03,6.99c-1.46-.98-2.71-2.24-3.68-3.7Zm18.35,3.7l-4.03-6.99c.27-.22,.52-.47,.74-.74l6.98,4.03c-.97,1.46-2.22,2.72-3.68,3.7Z"/></g><g><path class="cls-1" d="M570.46,642.18c-.12-.32-.21-.66-.26-1.01h-8.04c.11,1.8,.57,3.5,1.33,5.03l6.97-4.02Z"/><path class="cls-1" d="M577.19,645.23c-.33,.12-.67,.21-1.02,.27v8.04c1.8-.11,3.51-.59,5.04-1.35l-4.02-6.96Z"/><path class="cls-1" d="M574.49,653.55v-8.04c-.35-.06-.7-.15-1.02-.27l-4.02,6.96c1.54,.77,3.24,1.24,5.04,1.35Z"/><path class="cls-1" d="M562.16,639.5h8.04c.06-.34,.15-.67,.27-.99l-6.96-4.02c-.76,1.53-1.24,3.22-1.36,5.01Z"/><path class="cls-1" d="M573.51,635.52c.31-.12,.64-.2,.98-.26v-8.04c-1.79,.11-3.47,.58-5,1.33l4.02,6.97Z"/><path class="cls-1" d="M576.16,627.22v8.04c.34,.06,.66,.14,.98,.26l4.02-6.97c-1.52-.75-3.21-1.22-5-1.33Z"/><path class="cls-1" d="M572.02,644.38c-.27-.22-.51-.47-.73-.74l-6.98,4.03c.97,1.46,2.22,2.72,3.68,3.7l4.03-6.99Z"/><path class="cls-1" d="M571.34,637.07c.22-.26,.46-.5,.72-.71l-4.03-6.98c-1.45,.97-2.71,2.21-3.68,3.66l6.99,4.03Z"/><path class="cls-1" d="M588.49,641.17h-8.04c-.05,.35-.14,.68-.26,1.01l6.97,4.02c.76-1.53,1.22-3.23,1.33-5.03Z"/><path class="cls-1" d="M579.37,643.64c-.22,.27-.47,.52-.74,.74l4.03,6.99c1.46-.98,2.71-2.24,3.68-3.7l-6.98-4.03Z"/><path class="cls-1" d="M578.59,636.35c.27,.21,.5,.45,.72,.71l6.99-4.03c-.97-1.45-2.22-2.69-3.68-3.66l-4.03,6.98Z"/><path class="cls-1" d="M580.17,638.51c.12,.32,.21,.65,.27,.99h8.04c-.12-1.79-.59-3.49-1.36-5.01l-6.96,4.02Z"/><path class="cls-2" d="M575.33,624.51c-8.77,0-15.87,7.11-15.87,15.88s7.11,15.88,15.87,15.88,15.87-7.11,15.87-15.88-7.11-15.88-15.87-15.88Zm.84,10.75v-8.04c1.79,.11,3.48,.58,5,1.33l-4.02,6.97c-.31-.12-.64-.2-.98-.26Zm-1.68,0c-.34,.06-.66,.14-.98,.26l-4.02-6.97c1.53-.75,3.21-1.22,5-1.33v8.04Zm-4.28,4.24h-8.04c.12-1.79,.59-3.48,1.36-5.01l6.96,4.02c-.12,.32-.21,.65-.27,.99Zm0,1.68c.05,.35,.14,.68,.26,1.01l-6.97,4.02c-.76-1.53-1.22-3.23-1.33-5.03h8.04Zm4.29,4.33v8.04c-1.8-.11-3.51-.59-5.04-1.35l4.02-6.96c.33,.12,.67,.21,1.02,.27Zm1.68,0c.36-.06,.7-.15,1.02-.27l4.02,6.96c-1.54,.77-3.24,1.24-5.04,1.35v-8.04Zm4.29-4.33h8.04c-.11,1.8-.57,3.5-1.33,5.03l-6.97-4.02c.12-.32,.21-.66,.26-1.01Zm0-1.68c-.06-.34-.15-.68-.27-.99l6.96-4.02c.76,1.53,1.24,3.22,1.36,5.01h-8.04Zm5.85-6.47l-6.99,4.03c-.22-.26-.46-.5-.72-.71l4.03-6.98c1.46,.97,2.71,2.21,3.68,3.66Zm-18.27-3.66l4.03,6.98c-.26,.21-.5,.45-.72,.71l-6.99-4.03c.97-1.45,2.23-2.69,3.68-3.66Zm-3.72,18.29l6.98-4.03c.22,.27,.46,.52,.73,.74l-4.03,6.99c-1.46-.98-2.71-2.24-3.68-3.7Zm18.35,3.7l-4.03-6.99c.27-.22,.52-.47,.74-.74l6.98,4.03c-.97,1.46-2.22,2.72-3.68,3.7Z"/></g><g><path class="cls-1" d="M604.12,642.18c-.12-.32-.21-.66-.26-1.01h-8.04c.11,1.8,.57,3.5,1.33,5.03l6.97-4.02Z"/><path class="cls-1" d="M610.85,645.23c-.33,.12-.67,.21-1.02,.27v8.04c1.8-.11,3.51-.59,5.04-1.35l-4.02-6.96Z"/><path class="cls-1" d="M608.16,653.55v-8.04c-.36-.06-.7-.15-1.02-.27l-4.02,6.96c1.54,.77,3.24,1.24,5.04,1.35Z"/><path class="cls-1" d="M595.83,639.5h8.04c.06-.34,.15-.67,.27-.99l-6.96-4.02c-.76,1.53-1.24,3.22-1.36,5.01Z"/><path class="cls-1" d="M607.18,635.52c.31-.12,.64-.2,.98-.26v-8.04c-1.79,.11-3.48,.58-5,1.33l4.02,6.97Z"/><path class="cls-1" d="M609.83,627.22v8.04c.34,.06,.66,.14,.98,.26l4.02-6.97c-1.53-.75-3.21-1.22-5-1.33Z"/><path class="cls-1" d="M605.69,644.38c-.27-.22-.52-.47-.74-.74l-6.98,4.03c.97,1.46,2.22,2.72,3.68,3.7l4.03-6.99Z"/><path class="cls-1" d="M605.01,637.07c.22-.26,.46-.5,.72-.71l-4.03-6.98c-1.45,.97-2.71,2.21-3.68,3.66l6.99,4.03Z"/><path class="cls-1" d="M622.16,641.17h-8.04c-.05,.35-.14,.68-.26,1.01l6.97,4.02c.76-1.53,1.22-3.23,1.33-5.03Z"/><path class="cls-1" d="M613.03,643.64c-.22,.27-.46,.52-.74,.74l4.03,6.99c1.46-.98,2.71-2.24,3.68-3.7l-6.98-4.03Z"/><path class="cls-1" d="M612.26,636.35c.26,.21,.5,.45,.72,.71l6.99-4.03c-.97-1.45-2.23-2.69-3.68-3.66l-4.03,6.98Z"/><path class="cls-1" d="M613.84,638.51c.12,.32,.21,.65,.27,.99h8.04c-.12-1.79-.59-3.49-1.36-5.01l-6.96,4.02Z"/><path class="cls-2" d="M608.99,624.51c-8.77,0-15.87,7.11-15.87,15.88s7.11,15.88,15.87,15.88,15.87-7.11,15.87-15.88-7.11-15.88-15.87-15.88Zm.84,10.75v-8.04c1.79,.11,3.47,.58,5,1.33l-4.02,6.97c-.31-.12-.64-.2-.98-.26Zm-1.68,0c-.34,.06-.66,.14-.98,.26l-4.02-6.97c1.53-.75,3.21-1.22,5-1.33v8.04Zm-4.28,4.24h-8.04c.12-1.79,.59-3.48,1.36-5.01l6.96,4.02c-.12,.32-.21,.65-.27,.99Zm0,1.68c.05,.35,.14,.68,.26,1.01l-6.97,4.02c-.76-1.53-1.22-3.23-1.33-5.03h8.04Zm4.29,4.33v8.04c-1.8-.11-3.51-.59-5.04-1.35l4.02-6.96c.33,.12,.67,.21,1.02,.27Zm1.68,0c.35-.06,.7-.15,1.02-.27l4.02,6.96c-1.54,.77-3.24,1.24-5.04,1.35v-8.04Zm4.29-4.33h8.04c-.11,1.8-.57,3.5-1.33,5.03l-6.97-4.02c.12-.32,.21-.66,.26-1.01Zm0-1.68c-.06-.34-.15-.68-.27-.99l6.96-4.02c.76,1.53,1.24,3.22,1.36,5.01h-8.04Zm5.86-6.47l-6.99,4.03c-.22-.26-.46-.5-.72-.71l4.03-6.98c1.45,.97,2.71,2.21,3.68,3.66Zm-18.27-3.66l4.03,6.98c-.26,.21-.5,.45-.72,.71l-6.99-4.03c.97-1.45,2.22-2.69,3.68-3.66Zm-3.72,18.29l6.98-4.03c.22,.27,.46,.52,.74,.74l-4.03,6.99c-1.46-.98-2.71-2.24-3.68-3.7Zm18.35,3.7l-4.03-6.99c.27-.22,.52-.47,.74-.74l6.98,4.03c-.97,1.46-2.22,2.72-3.68,3.7Z"/></g><rect class="cls-1" x="525.29" y="577.09" width="9.27" height="22.1"/><rect class="cls-1" x="537.41" y="577.09" width="19.96" height="22.1"/><path class="cls-2" d="M519.92,588.76v27.72h85.94l6.62,7.52h29.43c3.37-3.74,5.45-8.69,5.45-14.12,0-10.41-7.54-19.04-17.45-20.78v-14.69h5.88v-8.56h-29.95v8.56h5.88v14.35h-15.15v-2.76c0-1.97-1.6-3.56-3.56-3.56s-3.56,1.6-3.56,3.56v2.76h-6.6v-2.76c0-1.97-1.6-3.56-3.57-3.56s-3.56,1.6-3.56,3.56v2.76h-14.02v-14.71h8.25v-6.68h-58.29v6.68h8.25v14.71Zm17.49-11.67h19.96v22.1h-19.96v-22.1Zm-12.12,0h9.27v22.1h-9.27v-22.1Z"/><path class="cls-2" d="M647.74,601.3h-1.12c1.12,2.65,1.75,5.55,1.75,8.59,0,2.44-.43,4.83-1.2,7.1h.58c4.33,0,7.84-3.51,7.84-7.84s-3.51-7.84-7.84-7.84Z"/><path class="cls-2" d="M612.03,625.01l-6.62-7.52h-85.49v13.52h106.33c5.73,0,10.92-2.29,14.73-6h-28.94Z"/><g><path class="cls-2" d="M664.6,653.55h8.28l-29.5-29.5-1.71,1.67c-.21,.2-.43,.38-.64,.57l23.57,27.25Z"/><path class="cls-2" d="M643.27,623.93s-.04,.05-.06,.07h.13l-.07-.07Z"/><path class="cls-2" d="M638.75,653.55h9.72l-11.83-24.17c-1.33,.71-2.73,1.29-4.18,1.72l6.29,22.45Z"/><path class="cls-2" d="M631.5,631.35c-.91,.22-1.83,.4-2.76,.51v21.69h8.98l-6.22-22.2Z"/><path class="cls-2" d="M640.29,626.96c-.87,.72-1.8,1.36-2.76,1.93l12.06,24.65h13.7l-23-26.58Z"/></g></g><polygon class="cls-2" points="524.51 627.38 512.6 627.38 512.6 625.46 506.22 625.46 506.22 627.38 494.3 627.38 494.3 628.92 506.22 628.92 506.22 630.84 512.6 630.84 512.6 628.92 524.51 628.92 524.51 627.38"/><polygon class="cls-2" points="377.25 627.38 365.33 627.38 365.33 625.46 358.95 625.46 358.95 627.38 347.04 627.38 347.04 628.92 358.95 628.92 358.95 630.84 365.33 630.84 365.33 628.92 377.25 628.92 377.25 627.38"/><polygon class="cls-2" points="230.93 627.38 219.01 627.38 219.01 625.46 212.64 625.46 212.64 627.38 200.72 627.38 200.72 628.92 212.64 628.92 212.64 630.84 219.01 630.84 219.01 628.92 230.93 628.92 230.93 627.38"/></g></g></svg>