<?xml version="1.0" encoding="UTF-8"?><svg id="Objects" xmlns="http://www.w3.org/2000/svg" viewBox="0 0 708.68 70.87"><defs><style>.cls-1{fill:none;}.cls-2{fill:#003082;}</style></defs><rect class="cls-1" x="43.11" y="21.77" width="16.23" height="9.21"/><path class="cls-1" d="M188.57,20.09H40.22v12.56H188.57v-12.56Zm-.87,11.7H41.09v-10.83H187.71v10.83Z"/><rect class="cls-1" x="106.61" y="21.77" width="16.23" height="9.21"/><rect class="cls-1" x="85.44" y="21.77" width="16.23" height="9.21"/><rect class="cls-1" x="64.28" y="21.77" width="16.23" height="9.21"/><path class="cls-1" d="M168.13,48.82c.7,.93,1.15,2.05,1.25,3.27h2.54l-2.05-3.27h-1.74Z"/><rect class="cls-1" x="127.78" y="21.77" width="16.23" height="9.21"/><path class="cls-1" d="M184.65,52.09h2.54c.11-1.22,.56-2.34,1.25-3.27h-1.74l-2.05,3.27Z"/><path class="cls-1" d="M14.56,18.34h7.26c.3,0,.54,.24,.54,.54v8.4c0,.3-.24,.54-.54,.54h-7.26c-.3,0-.54-.24-.54-.54v-8.4c0-.3,.24-.54,.54-.54Z"/><path class="cls-1" d="M40.36,48.82c.7,.93,1.15,2.05,1.25,3.27h2.54l-2.05-3.27h-1.74Z"/><path class="cls-1" d="M59.41,52.09c.11-1.22,.56-2.34,1.25-3.27h-1.74l-2.05,3.27h2.54Z"/><rect class="cls-1" x="404.02" y="21.77" width="16.23" height="9.21"/><rect class="cls-1" x="340.53" y="21.77" width="16.23" height="9.21"/><rect class="cls-1" x="298.19" y="21.77" width="16.23" height="9.21"/><rect class="cls-1" x="361.69" y="21.77" width="16.23" height="9.21"/><rect class="cls-1" x="148.94" y="21.77" width="16.23" height="9.21"/><path class="cls-1" d="M274.27,48.82c.7,.93,1.15,2.05,1.25,3.27h2.54l-2.05-3.27h-1.74Z"/><rect class="cls-1" x="382.86" y="21.77" width="16.23" height="9.21"/><rect class="cls-1" x="319.36" y="21.77" width="16.23" height="9.21"/><path class="cls-1" d="M248.48,18.34h7.26c.3,0,.54,.24,.54,.54v8.4c0,.3-.24,.54-.54,.54h-7.26c-.3,0-.54-.24-.54-.54v-8.4c0-.3,.24-.54,.54-.54Z"/><rect class="cls-1" x="170.11" y="21.77" width="16.23" height="9.21"/><rect class="cls-1" x="277.03" y="21.77" width="16.23" height="9.21"/><path class="cls-1" d="M440.89,18.34h7.26c.3,0,.54,.24,.54,.54v8.4c0,.3-.24,.54-.54,.54h-7.26c-.3,0-.54-.24-.54-.54v-8.4c0-.3,.24-.54,.54-.54Z"/><path class="cls-1" d="M422.49,20.09h-148.35v12.56h148.35v-12.56Zm-.87,11.7h-146.62v-10.83h146.62v10.83Z"/><path class="cls-1" d="M206.97,18.34h7.26c.3,0,.54,.24,.54,.54v8.4c0,.3-.24,.54-.54,.54h-7.26c-.3,0-.54-.24-.54-.54v-8.4c0-.3,.24-.54,.54-.54Z"/><rect class="cls-1" x="571.31" y="21.77" width="16.23" height="9.21"/><polygon class="cls-1" points="633.78 48.82 635.02 50.79 646.63 50.79 647.87 48.82 633.78 48.82"/><rect class="cls-1" x="613.65" y="21.77" width="16.23" height="9.21"/><rect class="cls-1" x="634.81" y="21.77" width="16.23" height="9.21"/><rect class="cls-1" x="592.48" y="21.77" width="16.23" height="9.21"/><path class="cls-1" d="M647.19,52.09h2.54c.11-1.22,.56-2.34,1.25-3.27h-1.74l-2.05,3.27Z"/><path class="cls-1" d="M402.04,48.82c.7,.93,1.15,2.05,1.25,3.27h2.54l-2.05-3.27h-1.74Z"/><path class="cls-1" d="M502.9,48.82c.7,.93,1.15,2.05,1.25,3.27h2.54l-2.05-3.27h-1.74Z"/><path class="cls-1" d="M293.33,52.09c.11-1.22,.56-2.34,1.25-3.27h-1.74l-2.05,3.27h2.54Z"/><path class="cls-1" d="M519.42,52.09h2.54c.11-1.22,.56-2.34,1.25-3.27h-1.74l-2.05,3.27Z"/><path class="cls-1" d="M630.67,48.82c.7,.93,1.15,2.05,1.25,3.27h2.54l-2.05-3.27h-1.74Z"/><path class="cls-1" d="M418.56,52.09h2.54c.11-1.22,.56-2.34,1.25-3.27h-1.74l-2.05,3.27Z"/><path class="cls-1" d="M504.92,32.66h148.35v-12.56h-148.35v12.56Zm.87-11.7h146.62v10.83h-146.62v-10.83Z"/><rect class="cls-1" x="528.98" y="21.77" width="16.23" height="9.21"/><rect class="cls-1" x="507.82" y="21.77" width="16.23" height="9.21"/><path class="cls-1" d="M477.83,18.3h7.26c.3,0,.54,.24,.54,.54v8.4c0,.3-.24,.54-.54,.54h-7.26c-.3,0-.54-.24-.54-.54v-8.4c0-.3,.24-.54,.54-.54Z"/><rect class="cls-1" x="550.15" y="21.77" width="16.23" height="9.21"/><path class="cls-1" d="M681.64,23.48h-6.24c-.91,0-1.66,.74-1.66,1.66v18.97c0,.91,.74,1.66,1.66,1.66h6.24c.91,0,1.66-.74,1.66-1.66V25.13c0-.91-.74-1.66-1.66-1.66Zm.79,20.62c0,.44-.35,.79-.79,.79h-6.24c-.44,0-.79-.35-.79-.79V25.13c0-.44,.35-.79,.79-.79h6.24c.44,0,.79,.35,.79,.79v18.97Z"/><path class="cls-2" d="M488.65,47.72c.06,0,.1-.05,.1-.1V14.4c0-.06-.05-.1-.1-.1h-14.38c-.06,0-.11,.05-.11,.1V47.61c0,.06,.05,.1,.11,.1h14.38Zm-11.36-28.88c0-.3,.24-.54,.54-.54h7.26c.3,0,.54,.24,.54,.54v8.4c0,.3-.24,.54-.54,.54h-7.26c-.3,0-.54-.24-.54-.54v-8.4Z"/><path class="cls-2" d="M675.4,24.34h6.24c.44,0,.79,.35,.79,.79v18.97c0,.44-.35,.79-.79,.79h-6.24c-.44,0-.79-.35-.79-.79V25.13c0-.44,.35-.79,.79-.79Z"/><path class="cls-2" d="M652.41,20.96h-146.62v10.83h146.62v-10.83Zm-128.36,10.02h-16.23v-9.21h16.23v9.21Zm21.17,0h-16.23v-9.21h16.23v9.21Zm21.17,0h-16.23v-9.21h16.23v9.21Zm21.17,0h-16.23v-9.21h16.23v9.21Zm21.17,0h-16.23v-9.21h16.23v9.21Zm21.17,0h-16.23v-9.21h16.23v9.21Zm21.17,0h-16.23v-9.21h16.23v9.21Z"/><path class="cls-2" d="M708.68,38.33c-2.74-10.81-17.16-26.69-31.54-31.42-2.69-.88-5.37-1.38-7.98-1.38h-198.36c-.3,0-.54,.24-.54,.54v4.18h204.47c.14-.05,.35-.08,.67-.09,.79-.02,7.36,1.45,12.47,4.43,6.6,3.85,12.58,10.5,11.96,10.5h-7.06c-1.21,0-10.89-4.17-11.56-4.17h-6.32c-.42,0-.4-.25-.4-.58V11.12h-204.22v24.72h3.03V14.4c0-.53,.44-.97,.97-.97h14.38c.54,0,.97,.44,.97,.97v21.44h136.51c18.55,0,29.48,8.23,32.67,11.04-.64-.3-1.33-.51-2.07-.58-4.35-3.36-14.57-9.59-30.6-9.59h-136.51v2.27h136.51c13.21,0,22.56,4.18,28,7.6-.34,.11-.67,.24-.99,.41-5.09-3.1-13.4-6.71-24.92-7.1v6.98c-.28-.13-.57-.24-.87-.33v-6.66c-.41,0-.81-.02-1.23-.02h-36.08v8.98h-.87v-8.98h-37.31v8.98h-.87v-8.98h-37.31v8.98h6.39l-1.24,1.97h-11.61l-1.24-1.97h6.83v-8.98h-23.22v7.77c0,.54-.44,.97-.97,.97h-14.38c-.54,0-.97-.44-.97-.97v-10.9h-3.03v10.12h-3.74v-.89h-2.67v.89h-3.59v-10.12h-7.59v10.9c0,.54-.44,.97-.97,.97h-14.38c-.54,0-.97-.44-.97-.97v-7.77h-30.34v8.98h13.23l-1.24,1.97h-11.61l-.96-1.52-.28-.45-.02-.03v-8.95h-37.31v8.98h24.01c-.8,1.07-1.29,2.39-1.29,3.83,0,3.53,2.86,6.39,6.39,6.39s6.24-2.73,6.37-6.14h17.77c.13,3.41,2.93,6.14,6.37,6.14s6.39-2.86,6.39-6.39c0-1.44-.48-2.76-1.29-3.83h26.87c.47,0,.84-.38,.84-.85v-.07h3.59v.89h2.67v-.89h3.74v.38c0,.3,.24,.54,.54,.54h21.89c-.8,1.07-1.29,2.39-1.29,3.83,0,3.53,2.86,6.39,6.39,6.39s6.24-2.73,6.37-6.14h17.77c.13,3.41,2.93,6.14,6.37,6.14s6.39-2.86,6.39-6.39c0-1.44-.48-2.76-1.29-3.83h2.02v4.84h14.16v1.61h1.97v-1.7h2.6v2.69h15.06v-2.51h8.81v1.7h39.5v-6.63h2.94c-.8,1.07-1.29,2.39-1.29,3.83,0,3.53,2.86,6.39,6.38,6.39s6.24-2.73,6.37-6.14h17.77c.13,3.41,2.93,6.14,6.37,6.14s6.39-2.86,6.39-6.39c0-1.44-.48-2.76-1.29-3.83h4.93c-.41,.65-.66,1.42-.66,2.24,0,2.33,1.89,4.21,4.21,4.21h27.16c2.33,0,4.21-1.89,4.21-4.21,0-.83-.25-1.59-.66-2.24h1.66c1.81,0,8.24-4.17,6.63-10.49Zm-55.41-5.68h-148.35v-12.56h148.35v12.56Zm-249.98,19.44c-.11-1.22-.56-2.34-1.25-3.27h1.74l2.05,3.27h-2.54Zm17.8,0h-2.54l2.05-3.27h1.74c-.7,.93-1.15,2.05-1.25,3.27Zm83.05,0c-.11-1.22-.56-2.34-1.25-3.27h1.74l2.05,3.27h-2.54Zm17.8,0h-2.54l2.05-3.27h1.74c-.7,.93-1.15,2.05-1.25,3.27Zm109.97,0c-.11-1.22-.56-2.34-1.25-3.27h1.74l2.05,3.27h-2.54Zm3.1-1.3l-1.24-1.97h14.08l-1.24,1.97h-11.61Zm14.71,1.3h-2.54l2.05-3.27h1.74c-.7,.93-1.15,2.05-1.25,3.27Zm33.57-7.99c0,.91-.74,1.66-1.66,1.66h-6.24c-.91,0-1.66-.74-1.66-1.66V25.13c0-.91,.74-1.66,1.66-1.66h6.24c.91,0,1.66,.74,1.66,1.66v18.97Z"/><path class="cls-2" d="M291.48,48.8l-.02,.03-.28,.45-.96,1.52h-11.61l-1.24-1.97h13.23v-8.98h-30.34v7.8c0,.54-.44,.97-.97,.97h-14.38c-.54,0-.97-.44-.97-.97v-10.94h-7.59v10.12h-3.66v-.89h-2.67v.89h-3.67v-10.12h-7.59v10.9c0,.54-.44,.97-.97,.97h-14.38c-.54,0-.97-.44-.97-.97v-7.77h-30.34v8.98h13.23l-1.24,1.97h-11.61l-.96-1.52-.28-.45-.02-.03v-8.95h-37.31v8.98h24.01c-.8,1.07-1.29,2.39-1.29,3.83,0,3.53,2.86,6.39,6.39,6.39s6.24-2.73,6.37-6.14h17.77c.13,3.41,2.93,6.14,6.37,6.14s6.39-2.86,6.39-6.39c0-1.44-.48-2.76-1.29-3.83h26.87c.47,0,.84-.38,.84-.85v-.07h3.67v.89h2.67v-.89h3.66v.07c0,.47,.38,.85,.85,.85h26.87c-.8,1.07-1.29,2.39-1.29,3.83,0,3.53,2.86,6.39,6.39,6.39s6.24-2.73,6.37-6.14h17.77c.13,3.41,2.93,6.14,6.37,6.14s6.38-2.86,6.38-6.39c0-1.44-.48-2.76-1.29-3.83h24.01v-8.98h-37.31v8.95Zm-122.1,3.3c-.11-1.22-.56-2.34-1.25-3.27h1.74l2.05,3.27h-2.54Zm17.8,0h-2.54l2.05-3.27h1.74c-.7,.93-1.15,2.05-1.25,3.27Zm88.34,0c-.11-1.22-.56-2.34-1.25-3.27h1.74l2.05,3.27h-2.54Zm19.05-3.27c-.7,.93-1.15,2.05-1.25,3.27h-2.54l2.05-3.27h1.74Z"/><rect class="cls-2" x="329.66" y="39.84" width="37.31" height="8.98"/><path class="cls-2" d="M244.92,14.33c-.06,0-.11,.05-.11,.1V47.64c0,.06,.05,.1,.11,.1h14.38c.06,0,.1-.05,.1-.1V14.44c0-.06-.05-.1-.1-.1h-14.38Zm11.36,12.94c0,.3-.24,.54-.54,.54h-7.26c-.3,0-.54-.24-.54-.54v-8.4c0-.3,.24-.54,.54-.54h7.26c.3,0,.54,.24,.54,.54v8.4Z"/><path class="cls-2" d="M437.32,14.3c-.06,0-.11,.05-.11,.1V47.61c0,.06,.05,.1,.11,.1h14.38c.06,0,.1-.05,.1-.1V14.4c0-.06-.05-.1-.1-.1h-14.38Zm11.36,12.98c0,.3-.24,.54-.54,.54h-7.26c-.3,0-.54-.24-.54-.54v-8.4c0-.3,.24-.54,.54-.54h7.26c.3,0,.54,.24,.54,.54v8.4Z"/><rect class="cls-2" x="260.27" y="36.71" width="176.08" height="2.27"/><path class="cls-2" d="M243.94,14.44c0-.54,.44-.97,.97-.97h14.38c.54,0,.97,.44,.97,.97v21.4h176.08V14.4c0-.53,.44-.97,.97-.97h14.38c.54,0,.97,.44,.97,.97v21.44h7.59V11.12H236.35v24.72h7.59V14.44Zm30.19,5.66h148.35v12.56h-148.35v-12.56Z"/><path class="cls-2" d="M460.27,6.32c0-.47-.38-.85-.84-.85H237.2c-.47,0-.85,.38-.85,.85v3.93h223.91v-3.93Z"/><path class="cls-2" d="M275,31.79h146.62v-10.83h-146.62v10.83Zm129.02-10.02h16.23v9.21h-16.23v-9.21Zm-21.16,0h16.23v9.21h-16.23v-9.21Zm-21.17,0h16.23v9.21h-16.23v-9.21Zm-21.17,0h16.23v9.21h-16.23v-9.21Zm-21.17,0h16.23v9.21h-16.23v-9.21Zm-21.17,0h16.23v9.21h-16.23v-9.21Zm-21.17,0h16.23v9.21h-16.23v-9.21Z"/><path class="cls-2" d="M57.57,48.8l-.02,.03-.28,.45-.95,1.52h-11.61l-1.24-1.97h13.23v-8.98H26.36v7.8c0,.54-.44,.97-.97,.97H11c-.54,0-.97-.44-.97-.97v-10.94H2.44v11.27c0,.47,.38,.85,.85,.85H30.15c-.8,1.07-1.29,2.39-1.29,3.83,0,3.53,2.86,6.39,6.39,6.39s6.24-2.73,6.37-6.14h17.77c.13,3.41,2.93,6.14,6.37,6.14s6.38-2.86,6.38-6.39c0-1.44-.48-2.76-1.29-3.83h24.01v-8.98H57.57v8.95Zm-15.96,3.3c-.11-1.22-.56-2.34-1.25-3.27h1.74l2.05,3.27h-2.54Zm19.05-3.27c-.7,.93-1.15,2.05-1.25,3.27h-2.54l2.05-3.27h1.74Z"/><rect class="cls-2" x="95.74" y="39.84" width="37.31" height="8.98"/><path class="cls-2" d="M11,14.33c-.06,0-.11,.05-.11,.1V47.64c0,.06,.05,.1,.11,.1h14.38c.06,0,.1-.05,.1-.1V14.44c0-.06-.05-.1-.1-.1H11Zm11.36,12.94c0,.3-.24,.54-.54,.54h-7.26c-.3,0-.54-.24-.54-.54v-8.4c0-.3,.24-.54,.54-.54h7.26c.3,0,.54,.24,.54,.54v8.4Z"/><path class="cls-2" d="M203.41,14.3c-.06,0-.11,.05-.11,.1V47.61c0,.06,.05,.1,.11,.1h14.38c.06,0,.1-.05,.1-.1V14.4c0-.06-.05-.1-.1-.1h-14.38Zm11.36,12.98c0,.3-.24,.54-.54,.54h-7.26c-.3,0-.54-.24-.54-.54v-8.4c0-.3,.24-.54,.54-.54h7.26c.3,0,.54,.24,.54,.54v8.4Z"/><rect class="cls-2" x="26.36" y="36.71" width="176.08" height="2.27"/><path class="cls-2" d="M10.03,14.44c0-.54,.44-.97,.97-.97h14.38c.54,0,.97,.44,.97,.97v21.4H202.44V14.4c0-.53,.44-.97,.97-.97h14.38c.54,0,.97,.44,.97,.97v21.44h7.59V11.12H2.44v24.72h7.59V14.44Zm30.19,5.66H188.57v12.56H40.22v-12.56Z"/><path class="cls-2" d="M226.35,6.32c0-.47-.38-.85-.84-.85H3.29c-.47,0-.85,.38-.85,.85v3.93H226.35v-3.93Z"/><path class="cls-2" d="M41.09,31.79H187.71v-10.83H41.09v10.83Zm129.02-10.02h16.23v9.21h-16.23v-9.21Zm-21.17,0h16.23v9.21h-16.23v-9.21Zm-21.17,0h16.23v9.21h-16.23v-9.21Zm-21.17,0h16.23v9.21h-16.23v-9.21Zm-21.17,0h16.23v9.21h-16.23v-9.21Zm-21.17,0h16.23v9.21h-16.23v-9.21Zm-21.17,0h16.23v9.21h-16.23v-9.21Z"/></svg>